<?xml version="1.0" encoding="UTF-8"?>
<svg id="_鍥惧眰_1" data-name="鍥惧眰 1" xmlns="http://www.w3.org/2000/svg" viewBox="0 0 706.46 227.87">
    <defs>
        <style>
            .cls-1 {
            fill: #ececec;
            }
        </style>
    </defs>
    <path class="cls-1"
        d="m217.96,143.36c-8.02.91-14.15,5.86-20.26,10.6-2.59,2.01-4.92,4.35-7.92,7.04,0-2.52-.01-4.08,0-5.65.05-6.06-.46-12.19.32-18.16.89-6.84,2.75-13.59,4.6-20.26.49-1.76,2.19-3.55,3.82-4.54,3.5-2.13,7.32-3.76,11.01-5.59-.12-.54-.24-1.08-.36-1.63-2.69.23-5.46.15-8.05.79-2.48.62-4.36,1.5-4.56-2.31-.06-1.06-1.35-2.06-2.68-3.96-1.07,3.07-2.17,5.09-2.41,7.2-.36,3.08-2.41,4.46-4.59,5.97-7.09,4.9-14.25,9.71-21.18,14.83-2.41,1.78-4.22,4.37-6.77,7.09,3.42,1.65,5.39,2.55,7.65.32,2.9-2.87,6.49-5.12,9.08-8.23,2.54-3.06,7.42-3.45,8.62-7.92.07-.27,1.97-.42,2.71-.04.64.33,1.24,1.56,1.15,2.32-.5,4.55-1.49,9.05-1.78,13.61-.54,8.69-.99,17.41-.91,26.12.04,4.49,5.2,6.33,8.77,3.46,2.48-1.99,4.81-4.17,7.11-6.38,5.76-5.55,12.14-9.84,20.25-11.22,4.37-.74,7.61.43,9.98,4.11,3.81,5.93,3.23,12.02.05,17.77-4.21,7.6-10.88,16.54-18.32,21.45-1.39.92-2.76,3.06-.58,3.75,2.04.65,5.04.09,6.92-1.07,2.29-1.41,3.62-4.31,5.79-6.02,5.13-4.06,8.16-9.55,11.36-15.03,2.82-4.83,2.96-10.32,2.18-15.16-1.73-10.83-11.51-14.34-21-13.26Z" />
    <path class="cls-1"
        d="m81.28,163.29c-2.03-.25-3.05-.79-3.42-3.03-.59-3.6-1.66-7.13-2.59-10.67-.66-2.52.09-4.4,2.31-5.77,1.56-.96,3.08-2.01,4.53-2.95-.73-2.92-2.26-3.17-4.28-1.94-1.65,1.01-3.23,1.23-3.98-.86-1.98-5.53-3.78-11.12-5.89-17.39,7.83-1.86,15.56-3.7,23.26-5.53-2-3.11-5.63-2.56-8.52-1.81-8.5,2.2-16.95,4.72-25.23,7.66-4.85,1.72-9.43,4.32-13.95,6.84-2.98,1.66-5.63,3.9-8.43,5.88,3.45,1.05,6.82,3.75,8.96-.95.2-.45,1.02-.62,1.57-.9,5.11-2.58,10.32-4.98,15.3-7.8,2.38-1.35,3.2-.45,3.79,1.54,1.06,3.6,2.3,7.17,2.96,10.84,1.27,7.11,1.08,7.05-5.3,10.78-7.01,4.1-13.94,8.35-20.85,12.63-1.51.94-2.75,2.31-4.11,3.48,3.21,1.32,5.67,1.93,7.94-.77,1.42-1.69,3.83-2.58,5.83-3.76,5.38-3.16,10.88-6.13,16.12-9.51,2.12-1.37,2.96-.94,3.39,1.16.66,3.18,1.03,6.42,1.71,9.59.56,2.6-.34,4.15-2.84,4.8-3.56.92-5.75,3.43-7.46,6.44-2.69,4.72-2.49,11.42.36,14.18,2.24,2.17,9.74,2.56,12.82.56.9-.59,1.95-1.41,2.28-2.35,1.01-2.91,1.83-5.91,2.46-8.93.3-1.42.47-3.24-.16-4.41-1.79-3.33.25-3.88,2.61-3.77,3.49.16,6.96.82,10.45,1.19,3.09.32,6.19.53,9.28.78.07-.42.14-.85.21-1.27-1.6-.52-3.16-1.25-4.8-1.52-5.43-.92-10.88-1.78-16.35-2.45Zm-10.77,19.69c-1.64,1.38-2.87,1.28-3.88-.64-2.38-4.53,1.35-12.19,6.43-13.19,1.72,5.21.56,11.22-2.55,13.83Z" />
    <path class="cls-1"
        d="m19.46,212.03c-2.15-1.91-4.1-4.4-5.23-7.02-1.82-4.22-3.23-8.69-4.21-13.19-1.93-8.88-3.84-17.79-5-26.79-.69-5.32.22-10.82.16-16.24-.08-7.32-.42-14.63-.59-21.95-.01-.49.52-.97.68-1.49.28-.84.91-2.21.6-2.48-.95-.86-2.23-1.48-3.49-1.82-.3-.08-1.19,1.22-1.45,2-.46,1.4-.93,2.89-.92,4.34.12,14.33-.4,29.19.75,43.08,1.1,13.33,3.59,23.93,9.75,35.47,1.87,3.5,5.31,6.58,7.41,10.19,2.98,5.12,7.38,8.44,12.52,10.74,2.26,1.01,5.12.7,7.71.99.08-.48.16-.95.25-1.43-9.17-1.14-13.02-9.13-18.95-14.41Z" />
    <path class="cls-1"
        d="m703.16,0c-.39.49-.87.92-1.13,1.46-5.13,10.82-10.41,21.7-15.18,32.6-2.63,6.01-4.06,12.63-1.47,19.27.31.8,1.08,1.43,1.64,2.13.28-.79.64-1.56.82-2.38.94-4.23,1.41-8.61,2.84-12.66,1.82-5.16,4.42-10.04,6.65-15.06,1.22-2.76,2.34-5.56,3.56-8.32,1.13-2.55,2.16-5.18,3.56-7.58,2.85-4.88,2.86-5.44-1.3-9.46Z" />
    <path class="cls-1"
        d="m141.04,164.73c-8.78-1.07-16.98,6.6-19.67,12.56-1.49,3.3.31,5.47,4.7,5.55.08-5.74,3.95-8.71,7.96-11.58.6-.43,1.02-1.24,1.67-1.47,1.87-.67,3.93-1.76,5.7-1.45,1.19.21,2.56,2.39,2.88,3.89.42,1.99.15,4.24-.27,6.28-.62,3.05-1.75,5.99-2.41,9.04-.2.91.48,2.01.75,3.02,1.03-.43,2.52-.56,3.02-1.33,3.5-5.38,6.8-10.72,3.82-17.72-1.77-4.17-3.66-6.23-8.16-6.78Z" />
    <path class="cls-1"
        d="m125.27,124.33c-.8-3.42-1.83-6.64-2.25-9.94-.43-3.34-.27-6.75-.35-10.13-.01-.49.14-.98.15-1.47.02-1.55,0-3.11,0-4.66,1.28-2.6.73-3.62-4.36-5.19-.33,3.26-.87,6.21-.88,9.16-.04,6.93-.97,14,3.22,20.35,1.21,1.84,2.18,2.79,4.46,1.87Z" />
    <path class="cls-1"
        d="m105.71,101.91c-.52-1.54-2.52-2.58-3.86-3.85-.58,1.23-1.87,2.64-1.61,3.66,1.61,6.37,3.36,12.72,5.5,18.92.96,2.78,2.89,5.27,7.05,5.51-1.74-4.9-3.49-9.26-4.81-13.76-1-3.42-1.13-7.12-2.27-10.48Z" />
    <path class="cls-1"
        d="m679.58,63c-4.03,6.87-7.3,13.92-7.26,21.95,0,1.63,2.25,3.24,3.47,4.86.35-.29.7-.57,1.04-.86.43-3.31.66-6.66,1.35-9.92.65-3.05,1.25-6.34,2.87-8.9,2.2-3.46,2.49-4.06-1.48-7.14Z" />
    <path class="cls-1"
        d="m263,145.82c-.67.16-1.25,1.45-1.86,2.22,3.41,1.53,6.71,3.13,10.5,5.37-.63-4.12-6.1-8.21-8.65-7.59Z" />
    <path class="cls-1"
        d="m305.19,113.65c-1.89.57-3.63,1.28-5.17,2.11,1.48-2.93,3.67-5.94,6.24-9.11,2.65-3.01,5.22-6.52,8.58-8.94.79-.53,1.53-.68,2.06-1.76.91-3.28-4.21-6.1-6.96-6.16-.37,0-.72-.02-1.1.08-1.81.84-3.04,2.19-4.93,2.82-3.87,1.62-7.94,2.95-11.96,4.08-1.69.48-3.87.95-5.1-.57-.5-.62-.41-1.52-.4-2.28-.28-.01-.41-.02-.69-.03-.32-.01-.48-.02-.81-.03-.14,0-.21,0-.35-.01-.08.09-.12.14-.2.23-1.5,1.84-1.38,4.38.02,6.12,1.54,1.91,4.59,3.73,6.96,2.15,1.13-.94,2.08-1.8,3.43-2.37,3.38-1.66,6.87-3.14,10.42-4.4,1.5-.46,3.06-1.14,4.63-1.16.17.03.22.07.27.18.22.74-.48,1.59-.94,2.19-6.32,8.18-13.1,16.38-17.16,26.11-.66,1.17-1.59,2.24-2.51,3.59-.56.82-1.35,2.05-1.17,3.46.19,2.51,3.01,3.83,4.35,1.65,1.57-2.34,2.21-4.54,3.19-6.37,1.89-3.51,4.84-5.93,8.87-7.62,6.96-2.91,18.76-2.31,20.51,8.44,1.35,8.27-6.06,13.19-12.23,15.25-4.76,1.59-9.18,1.99-13.83,2.52-.04.69-.09,1.43-.12,2.15.04,0,.07,0,.11,0,7.57-.31,15.75-.66,23.73-5.01,5.26-2.86,8.01-8.1,7.75-14.05-.58-13.3-14.81-16.49-25.51-13.27Z" />
    <path class="cls-1"
        d="m403.25,99.51c-1.6-1.06-3.17-1.51-6.3-2.39-.04-.01-4.08-1.15-7.54-1.42-5.03-.4-14.84,3.44-25.49,12.89l-.41.36-.33-.44c-.06-.09-.13-.17-.2-.25l-.25-.3.22-.32c4.17-5.9,8.08-12.04,11.86-17.98,3.86-6.07,7.85-12.36,12.14-18.38,1.57-2.03,3.14-3.41,5.09-4.5,1-.56,1.54-1.26,1.62-2.1.14-1.44-1.05-3-2.22-3.98-2.64-2.23-4.83-3.1-6.9-2.74-.55.29-.9.77-1.27,1.28-.18.25-.36.5-.57.74-.71.96-1.35,1.45-2.53,1.91-7.99,3.09-15.86,5.44-24.06,7.18-1.6.49-3.3.23-4.6-.73-1.37-1.01-2.15-2.64-2.24-4.61l-1.16-.59c-1.27,1.15-1.91,2.42-1.95,3.87.06,2.75,1.75,5.79,4.52,8.11,2.51,2.11,5.42,3.2,7.6,2.88.77-.07,1.23-.73,1.72-1.44.22-.32.45-.65.71-.92,1.25-1.13,2.89-1.92,4.48-2.68.38-.18.75-.36,1.1-.54,5.16-2.29,10.65-4.64,16.31-6.21l1.18-.33-.61,1.06c-.29.5-.64,1.02-.97,1.53-.3.44-.58.86-.78,1.21-3.13,5-5.93,9.97-8.65,14.78-6.77,11.97-13.15,23.27-23.43,33.73-.62.76-1.36,1.54-2.07,2.29-2.31,2.44-4.69,4.95-4.66,8.29.19,1.83,1.27,3.39,2.64,3.74,1.01.26,2.01-.23,2.8-1.38.6-.87,1.04-1.82,1.47-2.74.14-.31.29-.61.44-.92,1.33-2.7,3.22-5.53,5.78-8.66l.43-.52c2.96-3.63,7.93-9.7,16.17-13.66,1.48-.71,4.55-2.03,8.59-2.94,2.84-.64,8.75-1.97,13.98-.24.54.18,1.69.66,3.97,1.61,2.56,1.07,3.32,1.45,4.13,2.26.99.98,1.45,1.98,1.9,2.95.44.96.74,1.9,1.4,5.24.59,2.96.86,4.31.84,5.04-.01.65-.29,2.19-.84,5.24-.34,1.89-.46,2.44-.57,2.89-.46,1.93-.98,3.43-1.14,3.85-1.31,3.37-5.88,5.67-7.78,6.5l-.76.33.05-.82c.06-.96.04-1.85-.07-2.73-.42-3.41-1.9-6.57-4.17-8.92-5.38-5.58-15.68-5.41-22.15-1.37-4.6,2.87-6.78,7.36-6.49,7.63.36.33,4.18-5.68,10.37-6.92,5.44-1.09,10.73,1.73,13.43,7.17.93,1.87,1.61,3.94,2.08,6.33.07.43.26.89.54,1.36l.28.45-.46.25c-2.62,1.43-5.4,2.5-8.04,3.08-5.17,1.14-16.61,1.49-18.97-4.73-.11-.29-.23-1.9-.45-1.89-.08,0-.13.2-.15.27-.76,2.79,1.66,6.23,1.66,6.23.79,1.23,1.85,2.3,3.17,3.15,4.99,3.23,11.19,3.76,20.1,1.71,15.09-3.47,21.44-14.1,21.41-15.55,0-.43.02-.85.09-1.27.24-1.5.92-2.54,1.17-2.93.03-.05.41-.72,2.08-5.16,1.25-3.33-.19-7.51-1.71-11.93-1.78-5.18-3.07-8.92-6.59-11.26Z" />
    <path class="cls-1"
        d="m437.18,93.47c-2.43.48-4.74,1.37-7.16,2.27-1.42.44-5.95,2.83-6.46.3,0-.24.01-.36.02-.6-.23.03-.34.05-.57.08-.04,0-.06,0-.1.01-.08.01-.13.02-.21.03-.37.4-.58.88-.67,1.3-.45,1.99,1.41,3.56,3.07,4.11.67.22,1.58.42,2.18-.07,4.5-3.71,14.73-7.29,18.63-1.94,1.99,2.73,2.88,6.94,1.81,9.46-2.22,4.54-9.18,5.18-15.65,6.26.06.61.26.98.43,1.19,0,0,1.83,2.42,9.29-.54,1.04-.41.77-.53,2-1.03,2.44-.99,3.78-.62,4.8-1,2.83-1.04,4.26-8.07,1.98-13.66-2.3-5.64-8.59-7.39-13.39-6.18Z" />
    <path class="cls-1"
        d="m501.57,90.47c-3.62-1.91-7.82-4.35-8.4-8.61-.2-4.14,3.91-7.22,7.32-8.78.93-.49,1.95-.65,2.96-1,.6-.21,1.62-.78,1.36-1.74-1-3.71-5.71-2-8.11-1.28-3.91,1.17-8.63,2.22-12.19-.85-.31.39-.64.83-.95,1.27,1.3,1.96,3.44,3.11,5.46,3.6,1.77.43,3.68.42,5.54.17-5.09,4.28-6.6,10.92-.24,15.92,1.53,1.2,3.31,2.1,4.77,3.06-2.19,1.75-4.9,3.7-8.49,5.9-1.97,1.21-4.08,2.47-6.2,3.67-1.57.81-3.65,2.27-5.41,1.66-.19-.06-.28-.1-.47-.16-.32.05-.98.19-1.31.24-.27.05-.41.08-.68.13-.69.7-1.06,1.56-1.04,2.19-.39,2.54,3.19,4.6,6.55,3.06,1.57-.77,1.74-1.6,2.94-2.47,0,0,.4-.33.79-.64,5.47.65,10.16,1.97,13.4,3.86.23.61.38,1.11.98,1.59,1.17.79,3.23-.38,4.58-1.13,1.15-.64,4.41-2.76,4.61-5.82.05-.74-.13-.83-.3-3.74-.08-1.48-.07-1.96-.1-2.35-.12-1.39-1.04-3.36-4.75-5.79.53-.25,6.74-2.92,11.04-.26,1.54.95,2.87,2.44,3.8,4.55.44,1,.59,2.28,1.47,3.24.49.49,1.32.42,1.82-.09.54-.54.59-1.33.58-1.95-.05-2.54-1.71-4.69-3.37-6.29-5.11-4.94-13.02-4.27-17.95-1.13Zm4.08,9.56c.34,2.17-.03,5.77-2.79,6.49-2.06-.44-4.29-1.14-6.46-1.6-2.27-.48-5.45-.92-8.57-1.34,5.96-3.4,11.03-6.92,13.93-10.23,2.07,1.85,3.58,4.07,3.88,6.68Z" />
    <path class="cls-1"
        d="m582.13,85.29c-.19-.12-.29-.18-.48-.31-1.07,1.25-2.22,2.56-3.57,3.43-1.83,1.17-3.16,1.39-4.15,1-2.5-1-3.24-5.7-3.02-7.74.02-.23.11-.85.08-1.71-.04-1.45-.35-2.51-.43-2.79-.84-3.05.45-7.58-.98-13.31-.63-2.51-1.06-4.3-2.68-5.53-1.8-1.36-4.46-1.57-7.94-.68-7.18,2.57-12.78,7.92-17.29,13.81,0-.49.03-.97.06-1.51.04-1.54.56-2.91,1.65-4.15,1.55-1.93-.58-3.22-2.26-3.81-.03-.54-.1-1.67-.1-1.67-.2-2,1.61-4.26-.09-6.09-1.97-2.13-5.72-2.75-7.55-.15.09.26.13.39.21.64.01.03.02.05.03.09,2.74-.64,3.21.46,3.57,2.9,0,0,.48,5.06.52,5.44-1.72,1-4.21,1.96-6.04,2.75-1.47.56-3.13,1.41-3.85,2.97-.37.8-.44,1.73-.34,2.55.2,1.68,1.53,2.73,2.11,4.16.11.24.17.36.28.6.62-.39,1.6-1.01,2.22-1.4-.7-1.3-1.41-3.08-.37-4.37,1.62-1.41,3.8-2.58,5.85-3.42.15,1.88.43,5.73.43,5.73-.55,2.2-3.01,6.65-4.74,9.37-1.43,2.26-3.08,4.79-4.65,6.97-.45.7-1,1.24-1.23,2.16-.14,1.03.08,1.6.33,2.57.22.65.63,1.32,1.34,1.62,1.33.61,3-.48,3.48-1.69,1.76-4.41,3.85-8.62,6.32-12.61.41,3.04,1.08,7.53,1.36,9.91-1.04-.59-2.07-1.32-3.01-2.05-.28-.22-.42-.33-.69-.55-.29.35-.89,1.05-1.18,1.39-.26.31-.39.46-.66.77,1.97,2.04,4.2,4.01,5.57,6.68,1.13,2.21.7,5.52,3.11,7.08,2.09.61,3.42-2.39,3.39-4.36-.21-2.13-1.22-3.92-1.52-5.97-.43-2.95-.3-3.12-.99-5.07-.27-.76-.67-1.71-.84-3.13-.13-1.11-.06-1.95-.04-2.23.1-1.36-.05-3.73-1.21-8.17,2.23-3.25,4.41-5.69,6.08-7.34,3.36-3.34,7.4-6.47,12.22-7.51,5.92-1.27,5.14,5.87,5.53,9.36.09.84-.24,1.82.09,2.81.06.17.22.63.22,1.26,0,.52-.13.9-.15.98-.15.5-.68,3.51.71,8.72,1.55,5.81,2.45,8.48,4.73,9.85,3.51,2.11,7.63.36,9.55-2.42,1.14-1.48,1.96-3.11,2.75-4.73-.2-.13-.3-.19-.5-.32-.48-.31-.73-.46-1.21-.77Z" />
    <path class="cls-1"
        d="m647.76,76.64c-.72-.12-1.22-.17-1.99-.06-.67.19-1.2.46-1.68.73-1.84,1.02-3.95,1.58-5.98,2.17-1.88.55-4.08,1.32-5.97.84-1.94-.7-2.4-2.93-2.95-4.81-.35-1.28-.52-1.93-.88-3.22-2.71-9.74-10.51-9.22-15.69-2.64-.02,0-.03,0-.06,0,3.05-4.65,4-6.66,4.05-7.44,0-.07.02-.39.16-.78.34-.93,1.09-1.43,1.29-1.57,1.19-.85,1.84-2.52,2.88-4.21.88-1.42,2.38-3.42,5.14-5.82.62-.3,1.26-.58,1.91-.97.57-.3,1.48-1.15.99-2.01-.56-.98-1.62-1.5-2.52-1.98-1.34-.59-2.79-1.22-4.32-1.01-1.28.36-1.52,1.71-2.38,2.11-.24.09-1.16.4-1.42.47-6.71,1.96-13.78,4.12-20.3,6.14-.57.11-1.16.08-1.37-.05-.1-.06-.14-.1-.19-.23-.06-.4-.08-.98.13-1.59.28-.85.75-1.04.7-1.49-.08-.7-1.4-1.44-2.46-1.23-1.54.3-2.25,2.53-2.43,3.72-.42,2.74,1.06,5.77,3.46,7.03,1.28.67,2.91,1.27,4.28.67.93-.52,1.19-1.38,1.87-2.03.96-.84,2.07-1.47,3.26-2.07,4.29-2.17,9.15-3.7,13.93-5.19-4.19,6.63-8.92,15.79-12.13,23.45-1.76,4.2-3.48,8.66-5.83,12.17-1.19,1.79-2.6,3.97-1.82,6.29.39,1.67,2.72,2.46,3.92,1.24.6-.66.8-1.57,1.06-2.36,1.99-6.07,4.38-12.63,8.36-17.89,1.88-2.48,7.14-7.54,10.08-3.5,2.31,4,1.95,9.12,4.96,12.58,3.24,3.73,8.98,2.91,13.12,1.73,2.91-.83,6.1-1.42,8.77-3.08,2.23-1.61.04-3.93-1.95-4.12Z" />
    <path class="cls-1"
        d="m602.4,40.46c2.06.32,5.56.54,9.96-.86-1.11.46-2.81,1.1-4.96,1.63-3.16.79-4.91.76-5.3,1.85-.38,1.05.72,2.63,1.19,2.58.05,0,.07-.02.46-.17,0,0,.07-.03.49-.18,4.3-1.47,8.48-3.1,12.94-3.91,1.54-.28,3.1-.12,4.51-1.08,1.73-1.58-.99-3.77-2.57-4.15-4.04-.97-7.53.89-11.46,1.05-3.37.28-7.77.16-9.97-1.82,0,0-.08-.08-.19-.19-.16-.16-.25-.24-.26-.25-.21-.21-1.28-.38-1.98.2-.49.41-.68,1.08-.65,1.52.14,1.96,4.97,3.34,7.78,3.78Z" />
    <path class="cls-1"
        d="m505.96,63.19c2.19,4.74,10.48,4.09,9.93-2.56-.71-5.94-4.51-12.89-9.1-8.05-.67.47-.81,1.34-.57,2.05-1.46,1.99-1.32,6.25-.25,8.56Zm1.26-7.54c.6.17,1.04-.36,1.42-.74.95-.94,1.55-1,2.37-.39,1.38,1.04,2.23,4.81,2.18,6.78-1.44,1.28-3.84,1.22-5.3.14-.71-.61-1.11-2.48-1.14-3.98-.01-.69.15-1.35.48-1.81Z" />
</svg>