<?xml version="1.0" encoding="UTF-8"?>
<svg id="_鍥惧眰_1" data-name="鍥惧眰 1" xmlns="http://www.w3.org/2000/svg" viewBox="0 0 374.67 106.33">
    <defs>
        <style>
            .cls-1 {
            fill: #ececec;
            }
        </style>
    </defs>
    <g>
        <path class="cls-1"
            d="m238.21,44.23c.62.02,1.24.05,1.86.07-1.22-1.34-2.43-2.68-3.65-4.02l-2.59,2.49h-1.17v1.46h5.55Z" />
        <path class="cls-1"
            d="m223.96,42.77l.38,1.46h5.08c-.8,4.7-2.77,11.94-6.25,18.48-.09.14-.14.42-.14.42l.33.38s.28-.09.42-.33c4.09-4.61,5.83-10.91,6.53-17.06v-3.34h-6.35Z" />
        <path class="cls-1"
            d="m234.3,44.23v-11.41l-5.63-.29v13.59c.05,10.47.11,20.94.16,31.41.33-.31,1-.88,2.14-1.28,1.44-.51,2.78-.47,3.33-.42v-31.59Z" />
        <path class="cls-1" d="m235.86,32.93c-.56-.04-1.12-.08-1.67-.11v2.53l1.67-2.41Z" />
        <path class="cls-1"
            d="m240.97,40.18c1.14,1.55,2.17,3.44,2.17,3.44h0c.28-.56.56-1.13.85-1.69-.42-1.5-4.61-4.33-4.61-4.33l-.33.33c.87.89,1.5,1.68,1.92,2.25Z" />
        <path class="cls-1"
            d="m243.85,65.67c1.41,1.55,1.69,5.22,1.69,5.22l1.27,1.13,1.08-1.79-3.76-5.31-.47.42s.09.24.19.33Z" />
        <path class="cls-1"
            d="m266.88,48.93c-3.67-1.08-6.91-3.62-7.9-4.75,1.64-.61,2.8-1.36,3.58-1.97,1.12-.87,4.74-4.71,3.38-3.3h0c-.8-.6-1.6-1.19-2.4-1.79-.42,1.22-.71,2.16-2.59,4.18-.85.94-1.79,1.69-2.59,2.26-.94-.94-1.79-1.97-2.59-3.1.88-.51,1.97-1.26,3.07-2.34.79-.78,1.4-1.55,1.87-2.22-.66-.38-1.32-.75-1.97-1.13-.32.74-.77,1.61-1.38,2.52-.7,1.03-1.42,1.85-2.05,2.47-.8-1.35-1.6-2.7-2.4-4.04.38-.19.38-.8.38-.8,0,0-.14-.47-.38-.56l-2.26-1.41-.61,1.41h-9.82l.33,1.41h8.84c-.47,1.79-2.12,6.06-6.16,10.34-1.6,1.65-3.53,3.34-5.83,4.94-.05.05-.05.19-.05.19l.42.52s6.82-3.34,11.14-10.06c1.36-2.12,2.26-3.81,2.68-4.98l.38-.66c2.82,6.06,6.72,11.42,12.36,14.81.09.05.28.09.28.09l.47-.47,1.27-.75.89-.42s-.14-.33-.38-.38Z" />
        <path class="cls-1"
            d="m258.05,48.63c-.8-.56-1.59-1.11-2.39-1.67-.47.24-.94.48-1.4.72-3,.04-6,.08-9,.13l.38.87h11.05c.46-.02.91-.03,1.37-.05Z" />
        <path class="cls-1"
            d="m237.36,54.71s-2.26-5.17-4.7-7.19v1.32l.99,1.55c.75,1.36,1.83,4.84,1.83,4.84l.94.8.94-1.32Z" />
        <rect class="cls-1" x="243.99" y="61.16" width="15" height="1.41" />
        <rect class="cls-1" x="243.99" y="52.51" width="15" height="1.46" />
        <rect class="cls-1" x="243.85" y="53.96" width=".14" height="7.19" />
        <path class="cls-1"
            d="m245.43,61.16v-7.19h.34v-1.46h-1.03l-5.04-1.41v12.83c1.91.03,3.82.06,5.72.09v-1.46h.34v-1.41h-.34Z" />
        <path class="cls-1"
            d="m258.27,65.25c1.26-.36,2.53-.72,3.79-1.08v-9.97c.72-.39,1.43-.78,2.15-1.18l-4.92-2.12-2.26,1.6v11.66c.41.36.82.72,1.23,1.08Z" />
        <path class="cls-1"
            d="m255.98,71.69l.89-1.23,1.55-2.87.66-.33c.38-.05.61-.61.61-.61,0,0-.28-.56-.8-.66l-2.92-.56v1.41c0,.52-.24,1.41-.61,2.63l-.58,1.45h1.19v.76Z" />
        <path class="cls-1"
            d="m265.8,71.86l-2.96-1.81-3.01,2h-23.55l.38,1.17h28.44c.61,0,1.08-.76,1.08-.76,0,0-.14-.49-.38-.61Z" />
        <polygon class="cls-1"
            points="255.37 72.53 255.98 71.69 255.98 70.93 254.79 70.93 254.14 72.53 255.37 72.53" />
        <path class="cls-1"
            d="m82.74,88.33c-2.28-.59-4.55-1.17-6.83-1.76-.52-.87-1.14-1.81-1.9-2.77-1.55-1.96-3.18-3.41-4.57-4.47,4.05.77,8.1,1.54,12.15,2.31.39,2.23.77,4.45,1.16,6.68Z" />
        <path class="cls-1"
            d="m102.76,36.69c1.64.38,3.28.75,4.92,1.13-1.27.11-3.44.47-5.7,1.82-1.31.78-2.27,1.67-2.93,2.4-.62-.32-1.24-.65-1.85-.97,1.86-1.46,3.71-2.92,5.57-4.38Z" />
        <path class="cls-1"
            d="m23.09,33.13c.57-1.6,1.14-3.19,1.71-4.79-3-1.7-7.03-4.4-11.02-8.54-4.22-4.39-6.84-8.79-8.42-11.98.83,3.3,2.42,8.06,5.65,13.05,4.11,6.35,8.99,10.2,12.08,12.26Z" />
        <polygon class="cls-1" points="48.61 36.62 49.33 39.79 68.54 39.79 68.54 36.62 48.61 36.62" />
        <path class="cls-1"
            d="m103.28,36.83c-17.47-4.39-26.52-15.45-34.28-27.92-1.58-2.97-3.17-5.94-4.75-8.91-.4,1.47-1.04,3.56-2.08,5.95-.86,1.98-1.93,4.08-4.98,8.76-3.28,5.04-5.03,7.48-6.64,9.57-6.36,8.3-12.92,14.62-18.5,19.29-.2.2-.31.51-.31.82,0,.51.31.71.72.71,2.55,0,23.09-16.66,33.31-37.19,6.34,11.75,15.74,25.04,32.09,33.52.2.1.41.2.51.2.51,0,.92-.41,1.23-1.02.41-.92,1.33-1.63,2.55-1.94,1.23-.31,1.94-1.02,1.94-1.02,0,0-.31-.72-.82-.82Z" />
        <path class="cls-1" d="m90.2,52.68v-2.94c-.64.47-1.29.94-1.93,1.42l1.93,1.53Z" />
        <path class="cls-1" d="m85.09,53.48h5.11v-.8l-1.93-1.53c-1.06.78-2.12,1.55-3.18,2.33Z" />
        <rect class="cls-1" x="63.97" y="36.62" width="15.51" height="3.17" />
        <path class="cls-1"
            d="m85.09,53.48h-48.33l.72,3.07h47.62v22.68c0,2.35-.82,2.45-2.45,2.45s-3.98-.31-7.25-1.02c-.2,0-.31-.1-.51-.1-.31,0-1.02.2-1.02,1.12,0,.61.41,1.02,1.12,1.23,4.29.92,7.77,2.55,7.77,5.42,1.94-.31,7.46-1.43,7.46-5.82v-29.02h-5.11Z" />
        <path class="cls-1" d="m55.25,100.82v5.52c.1-.77.33-2.11.86-3.65-.54-.32-.86-.92-.86-1.86Z" />
        <rect class="cls-1" x="55.25" y="64.45" width="8.09" height="22.74" />
        <path class="cls-1"
            d="m55.25,100.82c0,.95.32,1.55.86,1.86.57-1.69,1.5-3.63,3.03-5.4,1.5-1.73,3.07-2.72,4.2-3.28v-6.81h-8.09v13.63Z" />
        <rect class="cls-1" x="55.25" y="56.55" width="8.09" height="7.9" />
        <path class="cls-1"
            d="m77.57,34.48c-1.17,1.77-2.33,3.54-3.5,5.32h8.52c-1.68-1.77-3.35-3.54-5.03-5.32Z" />
        <path class="cls-1"
            d="m331.3,29.74c.2.06.41.12.61.18v-.56c-.21.12-.41.24-.62.36,0,0,0,.02.01.02Z" />
        <polygon class="cls-1"
            points="283.07 46.25 283.74 49.27 324.52 49.27 324.52 46.25 283.07 46.25" />
        <polygon class="cls-1"
            points="347.4 7.24 293.55 7.24 295.08 10.37 329.28 10.37 347.4 10.37 347.4 7.24" />
        <path class="cls-1"
            d="m328.43,28.81c.53-.34,1.04-.69,1.57-1.03h-5.47c1.1.32,2.2.64,3.29.95l.61.08Z" />
        <path class="cls-1"
            d="m329.99,27.78c-.52.34-1.03.7-1.57,1.03l-.61-.08c1.16.34,2.32.67,3.48,1.01,0,0,0-.02-.01-.02.21-.12.41-.24.62-.36v-1.58h-1.91Z" />
        <path class="cls-1"
            d="m330.62,32.34c-.95.2-1.33.6-1.33,1.21v12.7h2.62v-16.33c-.2-.06-.41-.12-.61-.18.48.91,1.21,2.4-.68,2.6Z" />
        <path class="cls-1" d="m324.52,27.78v.53l3.29.42c-1.1-.32-2.2-.64-3.29-.95Z" />
        <path class="cls-1"
            d="m329.28,46.25v-12.7c0-.6.38-1.01,1.33-1.21,1.89-.2,1.16-1.69.68-2.6-1.16-.34-2.32-.67-3.48-1.01l-3.29-.42v58.29h4.76v-37.32h2.62v-3.02h-2.62Z" />
        <rect class="cls-1" x="329.28" y="49.27" width="2.62" height="37.32" />
        <path class="cls-1" d="m331.91,100.16v-4.22h-2.12c.87,1.45,1.58,2.9,2.12,4.22Z" />
        <path class="cls-1" d="m313.27,86.59h3.29c-1.45-.15-2.61-.07-3.29,0Z" />
        <path class="cls-1" d="m324.52,86.59h-7.96c2.21.24,5.08,1.03,7.96,3.23v-3.23Z" />
        <path class="cls-1" d="m329.79,95.94h2.12v-1.02h-2.74c.23.34.42.68.62,1.02Z" />
        <path class="cls-1"
            d="m329.28,86.59h-4.76v3.23c1.04.8,2.08,1.8,3.1,3.01,1.07-1.23,1.67-2.38,1.67-3.45v-2.79Z" />
        <path class="cls-1"
            d="m329.28,89.39c0,1.07-.6,2.22-1.67,3.45.11.13.22.25.33.38.44.55.84,1.12,1.22,1.69h2.74v-8.32h-2.62v2.79Z" />
        <path class="cls-1"
            d="m358.25,10.37h1.11c-.93-.92-1.85-1.85-2.78-2.77l1.19,1.46c.29.4.48.91.48,1.31Z" />
        <path class="cls-1" d="m353.89,4.91c-2.16.78-4.33,1.56-6.49,2.34h1.89l4.6-2.34Z" />
        <path class="cls-1"
            d="m349.77,10.37h8.48c0-.4-.19-.91-.48-1.31l-1.19-1.46c-.9-.9-1.8-1.79-2.69-2.69h0l-4.6,2.34h-1.89v3.12h2.37Z" />
        <path class="cls-1" d="m331.91,46.25v3.02h21c1.04-1.01,2.08-2.02,3.12-3.02h-24.12Z" />
        <path class="cls-1" d="m374.67,49.27c-.09-.1-.18-.2-.26-.29-.36.2-.8.29-1.29.29h1.55Z" />
        <path class="cls-1"
            d="m364.15,45.12c-.13-.11-.27-.23-.4-.34-1.27.96-2.55,1.91-3.82,2.87h.55l3.67-2.53Z" />
        <path class="cls-1"
            d="m360.48,47.65h-.55c-.72.54-1.44,1.08-2.16,1.62h10.12c.34,0,.65-.05.9-.16-1.54-1.33-3.09-2.66-4.63-3.99l-3.67,2.53Z" />
        <rect class="cls-1" x="350.07" y="46.21" width="14.08" height="3.06" />
        <path class="cls-1"
            d="m331.91,27.78c3.01-.89,8.35-2.91,13.44-7.53,3.94-3.58,6.22-7.35,7.48-9.88h-6.99c-.8,2.09-1.95,4.53-3.63,7.08-3.38,5.11-7.43,8.39-10.3,10.33Z" />
        <rect class="cls-1" x="129.81" y="64.28" width="12.39" height="1.38" />
        <path class="cls-1"
            d="m146.43,48.39c-.09.14-.13.37-.13.37l.35.37s.28-.3.69-.78v-1.52c-.28.52-.58,1.04-.91,1.56Z" />
        <rect class="cls-1" x="151.8" y="71.26" width="11.39" height="1.38" />
        <polygon class="cls-1"
            points="163.19 60.47 163.19 59 163.14 59.04 151.8 59.04 151.8 60.47 163.19 60.47" />
        <path class="cls-1"
            d="m147.24,44c-1.68,0-3.37-.01-5.05-.02v31.17c0,.96.42.92,2.74.55.42-.14.77-.37.77-.6v-29.43c.51-.56,1.02-1.12,1.53-1.68Z" />
        <path class="cls-1"
            d="m129.81,65.65v-21.67l-3.77-1.93v33.42c0,.64.23,1.01.75,1.01,2.19-.32,3.01-.46,3.01-1.01v-9.82Z" />
        <path class="cls-1"
            d="m132.54,45.36c0,4.04-.69,8.13-2.73,11.52v2.11c3.33-3.53,4.5-8.63,4.55-13.64h3.12v11.48c0,.96.43,1.74,1.13,1.74h3.59v-1.93h-2.3l-.43-.18-.17-.37v-10.74h2.9v-1.38h-2.9v-6.47h6.06c.56,0,1.12.02,1.68.03-1.11-1.17-2.22-2.34-3.32-3.52l-2.47,2.07h-13.99l.3,1.42h5.02v6.47h-2.77v1.38h2.73Zm1.86-7.85h3.07v6.47h-3.07v-6.47Z" />
        <rect class="cls-1" x="129.81" y="71.81" width="12.39" height="1.38" />
        <path class="cls-1"
            d="m153.66,37.01l-3.38-.96v1.19c-.08,1.47-.74,5.47-2.94,9.59v1.52c.82-.97,2.21-2.75,3.16-4.77h4.91v-1.38h-4.3c.48-1.44.95-2.88,1.43-4.32" />
        <path class="cls-1"
            d="m166.22,43.57c.67.02,1.33.03,2,.05-1.24-1.15-2.49-2.3-3.73-3.45l-2.38,2.02h-3.38v1.38h7.49Z" />
        <path class="cls-1"
            d="m156.26,52.8h-8.88l.35,1.38h19.44c.32-.32.64-.64.95-.96-.85-.83-1.7-1.65-2.55-2.48l-2.51,2.07h-6.8Z" />
        <polygon class="cls-1"
            points="156.26 52.8 158.42 52.8 158.72 52.8 158.72 43.57 158.42 43.57 158.42 42.19 158.72 42.19 158.72 36.04 158.72 33.87 155.4 33.47 155.4 42.19 156.26 42.19 156.26 43.57 155.4 43.57 155.4 52.8 156.26 52.8" />
        <rect class="cls-1" x="155.4" y="42.19" width=".85" height="1.38" />
        <rect class="cls-1" x="158.42" y="42.19" width=".3" height="1.38" />
        <path class="cls-1"
            d="m164.89,76.35c.51-.14.93-.37.85-.64v-14.78c0-.23,1.1-.51,1.1-.51l1.27-.83s-.17-.32-.42-.41l-3.91-1.38-2.21,1.19v16.71c0,1.1.76,1.01,3.31.64Z" />
        <path class="cls-1"
            d="m151.93,71.26v-10.79h1.32v-1.42h-1.85l-3.87-1.38v17.72c0,1.1.53,1.06,3.34.69.7-.14,1.06-.37,1.06-.6v-2.85h1.32v-1.38h-1.32Z" />
        <path class="cls-1"
            d="m158.72,35c-1.11-.2-2.21-.41-3.32-.61v-.92c1.58.17,3.16.33,4.74.5-.47.34-.95.68-1.42,1.03Z" />
        <path class="cls-1"
            d="m13.94,86.47c.29-9.81,1.6-22.63,5.63-37.11,4.04-14.53,9.57-26.23,14.4-34.8-4.06,8.81-8.7,21.31-11.08,36.83-2.08,13.6-1.8,25.4-.92,34.34-2.68.25-5.35.49-8.03.74Z" />
        <path class="cls-1"
            d="m16.43,60.56c-2.7-.43-6.51-1.33-10.55-3.32-2.45-1.21-4.39-2.52-5.88-3.69.62-1.57,1.23-3.14,1.85-4.71,1.13,1.83,3.09,4.46,6.31,7.02,3.06,2.42,6.11,3.87,8.27,4.71Z" />
        <path class="cls-1"
            d="m205.06,41.84c.36-1.37.61-2.59.79-3.59-.39.98-.86,2.08-1.44,3.27-.23.52-.5,1.06-.8,1.62-.24.44-.48.86-.72,1.25-1.61,2.8-3.76,5.89-6.65,8.91-2.8,2.93-5.63,5.12-8.08,6.73-.37-1.35-.58-2.8-.58-4.31,0-7.21,4.58-13.06,10.24-13.06,1.64,0,3.18.5,4.55,1.37.33-.99.65-1.97.98-2.95-1.71-.64-3.57-1.01-5.53-1.01-8.15,0-14.75,6.11-14.75,13.64,0,5.46,3.48,10.16,8.5,12.34-.21-.96-.43-1.92-.64-2.89,2.32-1.79,5.4-4.57,8.23-8.58,2.43-3.45,3.91-6.73,4.83-9.26,2.47,2.38,4.07,6.15,4.07,10.41s-1.56,7.93-3.98,10.32c5.02-2.18,8.5-6.88,8.5-12.34,0-5.09-3.02-9.52-7.5-11.87Z" />
    </g>
    <g>
        <path class="cls-1"
            d="m128.84,16.82c-.02-.07-.05-.14-.08-.22-.03-.08-.07-.17-.12-.26s-.09-.19-.14-.29-.09-.2-.14-.29v4.84h-.76v-4.6c-.06.24-.13.48-.2.71s-.14.45-.22.66c-.07.21-.15.41-.23.59s-.16.35-.24.5c-.02-.07-.05-.14-.08-.23-.03-.08-.07-.17-.11-.25-.04-.08-.07-.17-.11-.24-.04-.08-.07-.15-.11-.21.12-.2.24-.43.35-.69.11-.27.22-.55.32-.86.1-.3.19-.62.28-.94.08-.32.16-.64.22-.95h-.93v-.87h1.04v-1.9h.76v1.9h.79v.87h-.79v.58c.04.05.09.12.14.21.05.08.11.18.18.27.06.1.13.2.19.3.06.1.12.2.17.29.05.09.1.18.15.25s.08.13.1.17l-.45.66Zm6.27.72c-.15.3-.32.58-.52.83-.2.26-.42.51-.65.73.13.17.26.3.4.4s.3.15.47.17c.09,0,.17-.08.24-.26.06-.18.12-.45.16-.81.03.04.08.08.13.13s.11.09.17.14c.06.04.11.08.17.12.06.04.1.07.14.09-.05.3-.12.54-.19.74s-.15.35-.23.47c-.08.11-.17.2-.27.24s-.2.07-.31.06c-.31-.03-.59-.12-.85-.28-.25-.16-.48-.38-.68-.67-.25.18-.52.35-.8.51-.28.15-.58.29-.89.4-.03-.04-.06-.09-.1-.14-.04-.05-.08-.11-.13-.16s-.09-.11-.14-.16c-.05-.05-.09-.1-.13-.14.34-.12.66-.26.97-.43.31-.17.59-.35.83-.55-.11-.24-.21-.51-.29-.81-.09-.29-.17-.61-.24-.95h-1.54s-.01.1-.02.15,0,.1-.01.16c.11.09.24.18.36.29.13.11.25.21.38.31.13.1.24.2.34.3.1.1.19.19.27.27l-.58.57c-.05-.06-.12-.13-.19-.2-.07-.07-.15-.15-.23-.23-.08-.08-.17-.16-.26-.24-.09-.08-.18-.16-.28-.24-.05.2-.12.39-.21.59-.08.2-.19.4-.3.59s-.26.38-.41.55c-.16.18-.34.34-.54.5-.03-.04-.07-.09-.12-.15-.05-.06-.11-.11-.17-.17-.06-.05-.11-.1-.17-.15-.06-.05-.11-.08-.15-.11.27-.21.5-.43.68-.66.18-.23.33-.46.44-.7.11-.24.19-.48.25-.72s.09-.48.1-.7h-.7v-.74h.72v-.55h.8v.55h1.39c-.12-.71-.21-1.5-.27-2.36-.07-.86-.12-1.77-.15-2.74h.79c.03.99.07,1.91.14,2.77.07.86.17,1.64.29,2.33h1.21c-.11-.09-.23-.19-.36-.29-.13-.1-.25-.18-.37-.26l.39-.35c-.11.02-.21.04-.29.05-.08.01-.15.03-.2.04-.05.01-.09.03-.12.04-.03.01-.06.02-.09.04,0-.03-.02-.08-.04-.14-.02-.06-.04-.12-.06-.18-.02-.06-.04-.13-.07-.19s-.05-.12-.07-.16c.08-.01.16-.06.24-.14.08-.08.16-.18.25-.3.03-.03.06-.08.1-.14.04-.06.09-.12.14-.19.05-.07.1-.15.16-.24.06-.09.11-.18.17-.28-.17.02-.31.04-.42.05-.11.02-.2.03-.27.05s-.13.03-.16.05c-.04.02-.07.03-.1.05,0-.03-.02-.08-.04-.14-.02-.06-.04-.12-.06-.18-.02-.06-.04-.13-.07-.18s-.05-.11-.07-.15c.06-.01.12-.05.18-.11.06-.06.11-.14.17-.22.03-.04.07-.11.13-.21.06-.1.13-.22.19-.35.07-.14.13-.28.2-.45.07-.16.13-.32.17-.49l.66.2c-.11.27-.23.54-.37.8-.14.26-.29.5-.44.72l.62-.06c.05-.11.1-.21.15-.32s.09-.21.14-.32l.67.25c-.1.2-.21.39-.32.59s-.23.39-.35.57-.24.37-.36.54c-.12.18-.25.34-.38.5l.86-.09c-.03-.1-.07-.2-.11-.29-.04-.09-.07-.19-.11-.27l.55-.16c.05.11.11.24.16.37.05.14.1.27.15.4.05.13.09.26.13.38.04.12.07.23.09.33l-.59.2c0-.05-.02-.12-.04-.18-.02-.07-.04-.14-.06-.21-.19.03-.36.05-.5.07-.15.02-.28.04-.39.05.08.05.16.1.25.16.08.06.17.12.25.18.08.06.16.12.23.17s.13.11.18.16l-.26.25h.82v.74h-2.35c.05.22.11.42.17.62.06.2.13.38.19.55.15-.18.3-.36.43-.55s.25-.38.34-.59l.79.29Zm-3.77-1.57c0-.05-.02-.11-.03-.17-.01-.06-.03-.12-.04-.18-.34.04-.61.07-.81.1-.21.03-.37.05-.5.08-.13.02-.22.04-.27.06-.06.02-.1.04-.14.05,0-.03-.02-.08-.04-.14-.02-.06-.04-.12-.06-.18-.02-.06-.04-.12-.07-.18-.02-.06-.05-.12-.07-.16.08-.01.16-.06.25-.14.08-.08.17-.18.26-.31.03-.03.06-.08.11-.13s.09-.12.14-.19.11-.16.17-.25c.06-.09.12-.19.18-.29-.17.02-.31.04-.43.06-.11.02-.21.04-.28.05-.07.01-.13.03-.17.05-.04.02-.07.03-.1.05,0-.03-.02-.08-.04-.14-.02-.06-.04-.12-.06-.18-.02-.06-.04-.12-.07-.18-.02-.06-.05-.11-.07-.15.06-.01.12-.05.19-.11.06-.06.13-.14.2-.23.03-.05.08-.13.15-.24s.13-.24.21-.38.15-.31.23-.48c.08-.18.14-.35.2-.53l.68.19c-.13.3-.28.59-.44.88s-.33.55-.49.79l.65-.06c.05-.1.11-.2.16-.3s.1-.21.15-.31l.66.24c-.11.2-.22.39-.34.59s-.24.39-.36.57c-.12.19-.25.36-.38.54-.13.17-.26.34-.39.49l.85-.1c-.03-.1-.06-.2-.1-.3-.04-.1-.07-.2-.11-.28l.57-.14c.05.12.1.24.15.37.05.13.09.26.13.39.04.13.08.25.11.37.03.12.06.23.08.32l-.62.2Z" />
        <path class="cls-1"
            d="m154.26,13.61c0,.07,0,.13,0,.17s0,.1,0,.15v.12c-.02.69-.04,1.32-.06,1.87-.02.55-.04,1.04-.06,1.46s-.04.79-.07,1.1c-.03.31-.06.57-.09.79-.03.22-.07.4-.11.53-.04.13-.09.23-.15.31-.05.07-.1.14-.15.19s-.1.09-.16.13c-.06.03-.12.06-.19.08-.07.02-.14.03-.22.05-.15.02-.33.03-.56.03s-.45,0-.69-.02c0-.06-.02-.13-.03-.21-.01-.08-.03-.16-.06-.24-.02-.08-.05-.16-.08-.24-.03-.08-.06-.15-.1-.21.11,0,.23.01.33.02.11,0,.21.01.3.01.09,0,.18,0,.25,0h.18c.09,0,.16,0,.21-.03.05-.02.1-.06.15-.13.05-.07.1-.21.15-.42.04-.21.08-.51.11-.91.03-.4.06-.9.08-1.51.02-.61.05-1.35.07-2.22h-1.19c-.03.67-.09,1.31-.17,1.91-.08.6-.21,1.16-.38,1.68-.18.52-.41,1-.69,1.43-.28.43-.64.82-1.08,1.15-.03-.05-.08-.11-.13-.18-.05-.06-.11-.13-.18-.19-.06-.06-.13-.13-.19-.18-.06-.06-.12-.11-.18-.15.03-.02.07-.04.1-.07.03-.02.06-.05.09-.08-.36.04-.73.08-1.09.12-.36.04-.71.08-1.05.12-.34.04-.67.07-.98.1-.31.03-.61.06-.88.09l-.12-.8c.3-.02.62-.05.98-.08.36-.03.74-.06,1.13-.1v-.77h-1.84v-.69h1.84v-.52h-1.81v-3.05h1.81v-.53h-2.08v-.7h2.08v-.57c-.31.03-.62.05-.92.06s-.6.03-.88.04c0-.05-.02-.1-.04-.16-.02-.06-.04-.12-.06-.18-.02-.06-.04-.12-.06-.18s-.04-.11-.07-.16c.38-.02.77-.05,1.16-.08.4-.03.79-.07,1.17-.11.38-.04.75-.09,1.09-.14.34-.05.65-.11.91-.16l.45.71c-.27.05-.57.11-.89.16-.32.05-.66.09-1.01.13v.65h2.04v.59h1.06c0-.34,0-.7,0-1.06v-1.11h.9c0,.37,0,.74,0,1.1,0,.36,0,.72-.01,1.06h2.09Zm-8,1.87h1.04v-.62h-1.04v.62Zm1.04,1.19v-.62h-1.04v.62h1.04Zm.86,2.51c.32-.03.64-.07.96-.1.32-.03.64-.06.96-.1.21-.29.38-.6.52-.93s.25-.68.34-1.06.16-.78.2-1.2.08-.86.1-1.32h-1.07v-.76h-2v.53h1.88v3.05h-1.88v.52h1.9v.69h-1.9v.69Zm1.08-3.7v-.62h-1.08v.62h1.08Zm-1.08.58v.62h1.08v-.62h-1.08Z" />
        <path class="cls-1"
            d="m167.02,18.87v1.71h-.9v-1.71h-2.22v-.84h2.22v-.75h-1.85v-3.64h4.63v3.64h-1.87v.75h2.18v.84h-2.18Zm-2.44-5.41c-.01-.11-.04-.24-.09-.38-.04-.14-.09-.28-.15-.43s-.12-.3-.2-.45c-.07-.15-.15-.3-.22-.43l.77-.24c.08.12.16.25.23.4s.14.29.21.43c.06.15.12.29.17.43.05.14.08.27.1.38l-.82.29Zm.47,1.65h1.12v-.76h-1.12v.76Zm0,1.45h1.12v-.77h-1.12v.77Zm1.14-3.34c0-.11-.02-.24-.05-.38s-.06-.29-.1-.44c-.04-.15-.08-.31-.13-.46-.05-.16-.1-.3-.15-.44l.79-.18c.06.14.12.28.17.43.05.15.1.3.14.45.04.15.08.29.11.43s.05.26.06.38l-.84.21Zm1.89,1.13h-1.11v.76h1.11v-.76Zm0,1.44h-1.11v.77h1.11v-.77Zm1.21-4.17c-.09.17-.18.34-.27.52-.09.18-.18.35-.28.52-.09.17-.19.33-.28.49-.09.15-.18.29-.26.41l-.76-.25c.08-.14.16-.28.25-.45.08-.17.17-.34.25-.51.08-.17.15-.35.22-.52s.12-.33.17-.48l.96.27Zm3.63,3.87c-.16.48-.36.95-.6,1.42s-.51.91-.81,1.33c.11.38.24.67.37.89s.28.33.43.34c.09,0,.18-.12.24-.37.07-.25.12-.61.15-1.08.04.05.09.1.15.15.06.05.12.1.19.15.06.05.13.09.19.13.06.04.11.07.15.09-.05.4-.12.73-.2.99-.08.26-.17.47-.26.63-.09.16-.19.26-.29.32-.1.06-.21.08-.31.08-.32-.01-.6-.15-.84-.41-.24-.26-.45-.62-.63-1.1-.29.31-.6.59-.92.85-.32.26-.65.48-1,.67-.03-.05-.08-.11-.13-.17-.05-.06-.11-.12-.17-.18-.06-.06-.12-.12-.19-.17-.06-.05-.13-.1-.19-.14.43-.2.84-.45,1.22-.76.38-.31.74-.66,1.07-1.05-.1-.43-.19-.89-.27-1.41-.08-.51-.14-1.07-.2-1.66l-.99.12-.11-.88,1.03-.12c-.03-.44-.05-.89-.08-1.36s-.05-.95-.06-1.44h.9c.01.47.03.93.05,1.38.02.45.04.89.07,1.31l2.26-.27.11.87-2.29.28c.03.41.08.8.13,1.17s.11.72.17,1.03c.2-.32.38-.65.55-1,.16-.35.3-.7.41-1.05l.71.41Zm-.61-1.94c-.04-.12-.1-.25-.18-.4s-.16-.29-.26-.45c-.09-.15-.2-.3-.3-.45-.11-.15-.22-.29-.32-.42l.71-.37c.11.13.22.26.33.41.11.14.22.29.32.43.1.14.19.29.27.43.08.14.14.27.19.4l-.76.43Z" />
        <path class="cls-1"
            d="m187.77,15.34v3.81h3.51v.94h-7.95v-.94h3.43v-3.81h-3.99v-.93h3.99v-3.09h1v3.09h4.05v.93h-4.05Z" />
        <path class="cls-1"
            d="m206,11.87c0,.06-.01.13-.02.2,0,.07,0,.15,0,.23,0,.08,0,.15-.01.23,0,.07,0,.14-.02.2,0,.17-.01.34-.02.51,0,.17-.02.33-.03.49h2.19c.14,0,.26,0,.37-.02.11-.01.22-.03.32-.04l.71.34c-.01.09-.03.18-.04.27s-.02.17-.03.24c0,.17-.02.38-.03.65-.01.26-.03.55-.05.85-.02.31-.05.63-.08.96s-.07.65-.11.96c-.04.3-.1.59-.15.84-.06.26-.12.47-.2.64-.11.23-.25.4-.44.52-.18.12-.43.17-.74.17-.27,0-.55,0-.84-.03s-.56-.03-.81-.05l-.12-1.06c.26.03.51.06.77.09.26.02.49.04.7.04.15,0,.28-.03.36-.08.09-.05.16-.14.21-.27.06-.12.11-.28.16-.48s.08-.42.12-.66.07-.5.09-.77c.02-.27.04-.54.06-.8.02-.26.03-.52.04-.75s.01-.45.01-.63h-2.59c-.09.7-.23,1.33-.4,1.89-.17.56-.39,1.06-.64,1.5-.26.45-.56.85-.9,1.2-.34.36-.74.69-1.17.99l-.93-.76c.09-.05.19-.1.29-.17.1-.06.2-.13.3-.2.1-.07.2-.15.3-.23.1-.08.19-.16.28-.25.25-.23.47-.48.67-.75.2-.27.38-.57.53-.9.16-.32.29-.68.4-1.06.11-.38.19-.81.25-1.27h-1.84c-.11,0-.21,0-.31,0-.11,0-.21,0-.32.01-.11,0-.21.01-.3.02v-1.06c.2.02.4.04.62.05.22.01.42.02.62.02h1.63c.01-.16.02-.31.03-.48,0-.16,0-.33,0-.5,0-.05,0-.12,0-.2,0-.08,0-.16-.02-.24,0-.08-.01-.16-.02-.24s-.02-.15-.03-.21h1.18Zm2.65-.08c.07.09.14.19.21.31.07.12.15.24.22.37.07.13.14.25.21.37.07.12.13.23.18.33l-.67.28c-.05-.1-.1-.21-.17-.33-.07-.12-.14-.24-.21-.37-.07-.13-.14-.25-.22-.37-.07-.12-.15-.23-.21-.32l.66-.27Zm1.14-.43c.07.09.14.2.22.32.08.12.15.24.23.36.08.13.15.25.22.37.07.12.12.23.17.32l-.66.28c-.05-.11-.11-.22-.18-.35s-.13-.25-.21-.37c-.07-.12-.15-.24-.22-.35-.07-.12-.15-.22-.22-.31l.65-.27Z" />
        <path class="cls-1"
            d="m221,19.02c.43-.07.82-.15,1.2-.25s.73-.21,1.06-.33.64-.26.93-.4c.29-.14.55-.29.79-.43.41-.25.8-.53,1.15-.84.36-.31.68-.63.98-.96.3-.33.56-.67.79-1.02.23-.34.43-.68.58-1l.62,1.1c-.18.33-.39.66-.64.99-.24.33-.51.65-.81.97-.3.31-.63.62-.98.91-.35.29-.72.56-1.12.8-.26.15-.53.31-.81.46s-.59.29-.92.43-.66.25-1.02.36c-.36.11-.73.2-1.12.26l-.68-1.04Zm1.04-6.77c.12.08.25.18.4.28.14.11.3.22.46.34.16.12.33.25.49.38.16.14.32.27.48.4s.29.26.43.37c.13.12.24.23.34.33l-.8.82c-.09-.09-.19-.19-.32-.31-.13-.12-.26-.24-.4-.37-.15-.13-.3-.27-.46-.41-.16-.14-.32-.27-.48-.4-.16-.13-.31-.25-.46-.36-.15-.11-.29-.21-.41-.29l.74-.79Z" />
        <path class="cls-1"
            d="m246.22,11.57c.07.09.14.19.21.31.07.12.15.24.22.37.07.12.14.25.21.37.07.12.13.23.18.33l-.56.24.6.36c-.05.08-.1.18-.15.29-.05.12-.1.22-.13.32-.07.22-.15.45-.25.7-.1.25-.22.51-.34.77-.13.26-.27.52-.43.79-.16.27-.33.53-.52.78.22.16.42.31.62.46s.37.29.53.42l-.75.9c-.15-.14-.31-.28-.5-.43-.18-.15-.38-.31-.6-.48-.22.24-.47.48-.73.71-.26.23-.55.45-.86.66-.31.21-.64.41-1,.6-.36.19-.75.36-1.16.52l-.91-.8c.43-.14.83-.29,1.2-.46.37-.17.71-.36,1.03-.56.31-.2.6-.41.87-.63.26-.22.5-.44.72-.67-.18-.13-.35-.25-.53-.38-.18-.13-.35-.25-.52-.36-.17-.12-.33-.23-.5-.34-.16-.11-.32-.21-.47-.29l.7-.72c.3.18.63.37.97.59.34.22.68.45,1.02.68.15-.21.29-.43.42-.65s.25-.45.36-.67c.11-.22.21-.44.28-.65.08-.21.14-.41.19-.59h-3.19c-.17.23-.35.46-.55.7-.2.24-.41.47-.63.69-.23.23-.46.45-.71.66-.25.21-.51.41-.78.6l-.86-.66c.44-.28.83-.57,1.17-.88.34-.31.65-.61.92-.92.27-.31.49-.6.68-.89s.34-.54.46-.77c.03-.05.07-.12.11-.19.04-.07.07-.15.11-.23s.07-.16.1-.25.06-.16.08-.24l1.15.35c-.05.07-.1.15-.15.24-.05.08-.1.17-.15.25-.05.08-.09.16-.13.23-.04.07-.07.13-.1.19-.02.03-.04.07-.06.1-.02.03-.04.07-.06.1h2.44c.14,0,.28,0,.41-.03.13-.02.24-.04.34-.08l.04.02c-.05-.1-.1-.21-.16-.31-.06-.11-.12-.22-.18-.33-.06-.11-.12-.22-.19-.32-.06-.1-.13-.19-.19-.27l.65-.27Zm1.14-.43c.07.09.14.2.22.32.08.12.16.24.23.37.07.13.14.25.21.36.07.12.13.22.17.32l-.66.28c-.05-.11-.11-.22-.18-.34-.06-.12-.13-.24-.21-.37-.07-.12-.15-.24-.22-.36-.07-.11-.15-.22-.22-.31l.65-.27Z" />
        <path class="cls-1"
            d="m262.56,12.21c-.05.14-.11.28-.18.45-.06.16-.13.35-.21.58-.05.16-.11.37-.2.62s-.18.53-.27.85c-.1.31-.2.63-.31.97-.11.34-.22.67-.33,1-.11.33-.22.64-.32.94s-.2.56-.29.78c.34-.03.71-.07,1.08-.11s.75-.08,1.11-.12c.36-.04.72-.08,1.06-.12.34-.04.65-.08.92-.11-.09-.2-.19-.39-.29-.57s-.2-.36-.3-.53c-.1-.17-.2-.33-.29-.48s-.19-.28-.27-.39l.98-.43c.12.17.25.38.38.6s.27.46.42.71.28.5.42.76c.14.26.27.52.4.76s.24.49.34.71.19.43.27.61l-1.07.49c-.07-.18-.15-.37-.23-.59-.09-.22-.19-.44-.29-.67-.27.03-.58.07-.93.11-.35.04-.71.08-1.09.12s-.77.09-1.17.13c-.4.04-.78.08-1.15.12-.37.04-.71.07-1.02.11-.31.03-.58.06-.8.08-.13.01-.27.03-.43.06-.16.02-.31.05-.47.07l-.18-1.18h.25c.08,0,.17,0,.26,0s.18,0,.26,0,.16,0,.24,0c.06,0,.13,0,.2,0s.14,0,.22,0c.09-.24.2-.52.31-.84s.23-.65.35-1c.12-.35.23-.71.35-1.07.11-.36.22-.71.33-1.03.11-.33.2-.63.28-.9.08-.27.14-.49.19-.66.03-.12.06-.23.09-.33.02-.1.04-.19.06-.27.02-.08.03-.16.05-.23s.02-.14.03-.22l1.27.26Z" />
    </g>
    <g>
        <path class="cls-1"
            d="m150.35,92.29v-6.61h.85l.97,3.63.97-3.63h.85v6.61h-.7v-1.32c0-.69.01-1.38.03-2.06s.04-1.37.05-2.06l-.93,3.46h-.54l-.93-3.46c.01.68.03,1.37.05,2.06s.03,1.37.03,2.06v1.32h-.7Z" />
        <path class="cls-1"
            d="m157.56,92.36c-.16,0-.32-.02-.49-.05s-.31-.09-.45-.17-.26-.18-.37-.3-.2-.26-.27-.41c-.07-.15-.11-.3-.14-.46-.02-.16-.04-.32-.04-.49v-1.17c0-.16.01-.32.04-.49.02-.16.07-.32.14-.46.07-.15.15-.28.27-.41s.24-.22.38-.3.29-.14.45-.18c.16-.04.32-.06.48-.06s.32.02.48.06c.16.04.31.1.45.18.14.08.27.18.38.3s.2.26.27.41.11.3.14.46c.02.16.04.32.04.49v1.17c0,.16-.01.32-.04.49-.02.16-.07.32-.14.46s-.15.28-.27.41-.24.22-.37.3-.29.13-.45.17-.32.05-.49.05Zm0-.63c.1,0,.2-.01.31-.04.1-.02.19-.06.28-.12s.16-.13.22-.21c.06-.08.11-.17.15-.27.04-.1.06-.2.07-.3.01-.1.02-.2.02-.31v-1.17c0-.1,0-.2-.02-.31-.01-.1-.04-.2-.08-.3-.04-.1-.09-.19-.15-.27-.06-.08-.13-.15-.22-.21-.09-.05-.18-.09-.28-.12-.1-.02-.21-.04-.32-.04-.1,0-.2.01-.3.04-.1.03-.19.07-.27.13-.08.06-.16.13-.22.21-.06.08-.11.17-.14.27-.04.09-.06.19-.07.29-.01.1-.02.2-.02.31v1.17c0,.1,0,.2.02.31.01.1.04.2.07.3.04.1.09.19.15.27.06.08.14.15.22.21s.18.1.28.12c.1.02.2.04.31.04Z" />
        <path class="cls-1"
            d="m163.2,92.36c-.14,0-.27-.02-.41-.05-.13-.04-.26-.09-.37-.18-.11-.08-.21-.18-.28-.3-.08-.12-.14-.24-.19-.36v.82h-.7v-6.61h.7v2.66c.05-.13.11-.25.19-.36.08-.12.17-.22.28-.3.11-.08.23-.14.37-.18.14-.04.27-.05.41-.05.15,0,.3.02.45.06.15.04.28.11.4.2.12.09.22.2.3.32.08.13.15.26.19.4s.08.29.1.44c.02.15.03.3.03.45v1.17c0,.15,0,.3-.03.45-.02.15-.05.3-.1.44s-.11.27-.19.4c-.08.13-.18.23-.3.32-.12.09-.25.16-.4.2-.15.04-.3.06-.45.06Zm-.27-.63c.1,0,.2-.01.3-.04.1-.02.19-.06.27-.12s.16-.13.22-.21c.06-.08.11-.17.15-.27.04-.1.06-.2.07-.3.01-.1.02-.2.02-.31v-1.17c0-.1,0-.2-.02-.31-.01-.1-.04-.2-.07-.3-.04-.1-.09-.19-.15-.27-.06-.08-.14-.15-.22-.21s-.18-.1-.27-.12-.2-.04-.3-.04-.2.01-.3.04c-.1.02-.19.07-.27.13s-.15.13-.2.22c-.06.09-.1.18-.13.27-.03.09-.05.19-.06.29-.01.1-.02.2-.02.3v1.17c0,.1,0,.2.02.3s.03.2.06.29c.03.09.07.18.13.27.06.09.12.16.2.22s.17.1.27.13c.1.02.2.04.3.04Z" />
        <path class="cls-1"
            d="m166.52,92.29v-.63h1.29v-3.51h-1.16v-.63h1.86v4.14h1.16v.63h-3.15Zm1.57-5.6c-.08,0-.15-.01-.23-.03s-.13-.06-.19-.11c-.05-.05-.09-.12-.11-.19-.02-.07-.03-.15-.03-.23s.01-.15.03-.23c.02-.07.06-.14.11-.19.05-.05.12-.09.19-.12.07-.02.15-.04.23-.04s.15.01.23.04c.07.02.13.06.19.12.05.05.09.12.12.19.02.07.04.15.04.23s-.01.15-.04.23c-.02.07-.06.13-.12.19-.05.05-.12.09-.19.11s-.15.03-.23.03Z" />
        <path class="cls-1" d="m171.7,92.29v-.63h1.29v-5.35h-1.16v-.63h1.86v5.98h1.16v.63h-3.15Z" />
        <path class="cls-1"
            d="m178.44,92.36c-.17,0-.33-.02-.49-.05-.16-.03-.31-.09-.45-.17-.14-.08-.27-.18-.38-.31-.11-.12-.2-.26-.27-.41-.07-.15-.12-.3-.14-.46-.02-.16-.04-.32-.04-.49v-1.17c0-.16.01-.32.04-.49.02-.16.07-.32.14-.46.07-.15.15-.28.27-.41s.24-.22.37-.3.29-.13.45-.17.32-.05.49-.05.32.02.49.05.31.09.45.17.26.18.37.3.2.26.27.41.11.3.14.46c.02.16.04.32.04.49v.9h-2.79v.27c0,.1,0,.2.02.31.01.1.04.2.08.3.04.1.09.19.15.27.06.08.14.15.22.21s.18.1.28.12c.1.02.21.04.32.04.11,0,.23-.01.35-.04.12-.02.22-.07.32-.13.1-.06.18-.15.24-.25.06-.1.09-.21.1-.33h.7c0,.13-.03.26-.08.4-.04.13-.11.25-.19.36-.08.11-.18.21-.29.29s-.23.15-.36.2-.26.09-.4.1c-.14.02-.27.03-.4.03Zm-1.06-2.77h2.09v-.27c0-.1,0-.2-.02-.31-.01-.1-.04-.2-.07-.3-.04-.1-.09-.19-.15-.27-.06-.08-.14-.15-.22-.21s-.18-.1-.28-.12-.2-.04-.31-.04-.2.01-.31.04-.19.06-.28.12-.16.13-.22.21c-.06.08-.11.17-.15.27-.04.1-.06.2-.07.3-.01.1-.02.2-.02.31v.27Z" />
        <path class="cls-1"
            d="m188.76,92.36c-.15,0-.3-.01-.45-.04s-.29-.07-.43-.13c-.14-.06-.26-.14-.37-.25-.11-.1-.21-.22-.28-.35-.08-.13-.13-.27-.17-.41-.04-.15-.05-.3-.05-.45h0v-.03h.7v.02c0,.13.02.26.07.4.05.13.12.25.22.34.1.1.22.16.35.2.14.04.27.06.41.06s.28-.02.42-.07c.14-.05.26-.12.36-.23.1-.1.17-.23.22-.36.05-.14.07-.28.07-.42s-.03-.3-.09-.44-.15-.27-.25-.38-.22-.2-.36-.28-.27-.15-.41-.21-.27-.14-.4-.21-.26-.16-.38-.26c-.12-.1-.24-.2-.34-.31-.1-.11-.19-.24-.27-.37-.08-.13-.13-.27-.17-.42-.04-.15-.05-.3-.05-.45s.02-.31.05-.45c.03-.15.08-.29.15-.42s.15-.26.26-.37c.1-.11.22-.2.36-.27.13-.07.27-.12.42-.15.15-.03.3-.04.45-.04s.3.01.44.04c.14.02.28.07.41.14.13.07.25.15.36.26.11.1.2.22.27.35.07.13.12.27.15.41s.05.29.05.44v.03h-.7v-.02c0-.13-.02-.26-.06-.39-.04-.13-.11-.24-.2-.34s-.2-.17-.33-.21c-.13-.04-.26-.07-.39-.07s-.27.03-.4.08c-.13.05-.24.13-.33.23-.09.1-.15.22-.19.36-.04.14-.06.27-.06.4,0,.16.03.31.09.45.06.14.15.27.25.38s.23.2.36.28c.14.07.27.14.41.21.13.07.27.14.4.21.14.07.26.16.38.25.12.09.23.2.34.31.1.11.19.24.27.37.07.13.13.28.17.43.04.15.06.3.06.45s-.02.31-.05.46c-.04.15-.09.29-.16.43-.07.14-.16.26-.27.37-.11.11-.24.2-.37.27-.14.07-.28.12-.44.14-.15.03-.3.04-.45.04Z" />
        <path class="cls-1"
            d="m193.81,92.36c-.15,0-.3-.02-.44-.06-.14-.04-.27-.11-.38-.2-.11-.09-.21-.2-.28-.33-.08-.13-.14-.26-.18-.41-.05-.14-.07-.28-.09-.43-.02-.15-.02-.29-.02-.44v-2.97h.7v2.97c0,.1,0,.2.02.3s.03.2.06.29c.03.09.07.18.13.27.06.08.12.16.2.22.08.06.16.1.26.13.1.03.19.04.3.04s.2-.01.3-.04c.1-.03.18-.07.26-.13.08-.06.15-.13.2-.22.06-.08.1-.17.13-.27.03-.09.05-.19.06-.29.01-.1.02-.2.02-.3v-2.97h.7v4.77h-.7v-.82c-.05.13-.11.25-.19.36-.08.11-.17.21-.28.3-.11.08-.23.14-.37.18-.14.04-.27.05-.4.05Z" />
        <path class="cls-1"
            d="m197.74,92.29v-.63h1.29v-3.51h-1.16v-.63h1.86v4.14h1.16v.63h-3.15Zm1.57-5.6c-.08,0-.15-.01-.23-.03-.07-.02-.13-.06-.19-.11-.05-.05-.09-.12-.11-.19-.02-.07-.03-.15-.03-.23s.01-.15.03-.23c.02-.07.06-.14.11-.19.05-.05.12-.09.19-.12.07-.02.15-.04.23-.04s.15.01.22.04c.07.02.14.06.19.12.05.05.09.12.12.19.02.07.04.15.04.23s-.01.15-.04.23c-.02.07-.06.13-.12.19-.05.05-.12.09-.19.11s-.15.03-.22.03Z" />
        <path class="cls-1"
            d="m204.7,92.36c-.14,0-.29-.02-.43-.05-.14-.04-.27-.1-.39-.18-.12-.08-.22-.19-.3-.31-.08-.12-.15-.25-.19-.39-.05-.14-.08-.27-.1-.42-.02-.14-.03-.29-.03-.43v-2.43h-.99v-.63h.99v-1.84h.7v1.84h1.46v.63h-1.46v2.43c0,.08,0,.17,0,.26s.02.17.04.25c.02.08.05.16.09.24s.08.15.14.21c.06.06.13.11.21.14.08.03.17.05.25.05.11,0,.22-.03.33-.08.1-.05.19-.13.25-.23.06-.1.1-.21.13-.32.02-.11.04-.23.04-.34,0,0,0-.02,0-.03s0-.02,0-.03h.7v.09c0,.13-.01.26-.04.4-.02.13-.06.26-.12.38s-.13.24-.21.34c-.09.11-.19.19-.3.26s-.24.12-.37.14c-.13.03-.26.04-.4.04Z" />
        <path class="cls-1"
            d="m214.12,92.36c-.15,0-.3-.02-.44-.06-.14-.04-.28-.1-.4-.19-.12-.09-.22-.19-.31-.32-.08-.12-.15-.25-.2-.39-.05-.14-.08-.28-.1-.43-.02-.15-.03-.3-.03-.44v-3.1c0-.16.01-.31.04-.47.02-.16.07-.31.13-.45s.15-.28.26-.4c.11-.12.23-.22.37-.3.14-.08.29-.13.44-.16.16-.03.32-.05.47-.05s.3.01.45.04c.15.02.29.07.42.14s.26.15.37.25.2.22.27.35c.07.13.12.27.16.41s.05.29.05.44h0v.03h-.7v-.02c0-.13-.02-.26-.07-.4s-.11-.25-.21-.34c-.09-.1-.21-.16-.34-.21-.13-.04-.27-.06-.41-.06-.15,0-.3.03-.44.09s-.26.14-.35.27c-.09.12-.15.25-.18.4s-.05.3-.05.45v3.1c0,.1,0,.2.02.3s.04.2.08.29c.04.09.09.18.15.26.06.08.13.14.22.2.09.05.18.09.27.12.1.02.2.04.3.04.1,0,.19-.01.29-.04.1-.02.19-.06.27-.12s.14-.13.2-.21c.06-.08.1-.17.14-.26s.05-.18.07-.28.02-.2.02-.29v-1.21h-.97v-.63h1.67v3.6h-.62v-1.03c-.04.15-.1.3-.17.44-.08.14-.17.26-.29.37-.12.11-.25.18-.41.23-.15.05-.31.07-.46.07Z" />
        <path class="cls-1"
            d="m219.43,92.36c-.15,0-.3-.02-.44-.06-.14-.04-.27-.11-.38-.2-.11-.09-.21-.2-.28-.33-.08-.13-.14-.26-.18-.41-.05-.14-.08-.28-.09-.43-.02-.15-.02-.29-.02-.44v-2.97h.7v2.97c0,.1,0,.2.02.3s.03.2.06.29c.03.09.07.18.13.27.06.08.12.16.2.22.08.06.16.1.26.13.1.03.19.04.3.04s.2-.01.3-.04c.1-.03.18-.07.26-.13.08-.06.14-.13.2-.22.06-.08.1-.17.13-.27.03-.09.05-.19.06-.29s.02-.2.02-.3v-2.97h.7v4.77h-.7v-.82c-.05.13-.11.25-.19.36-.08.11-.17.21-.28.3-.11.08-.23.14-.37.18-.14.04-.27.05-.4.05Z" />
        <path class="cls-1"
            d="m223.38,92.29v-4.77h.7v.82c.05-.13.11-.25.19-.36.08-.11.17-.21.28-.3s.23-.14.37-.18.27-.05.4-.05c.15,0,.3.02.44.06.14.04.27.11.38.2.11.09.21.2.28.33.08.13.14.26.18.4.05.14.08.29.09.43.02.15.02.29.02.44v2.97h-.7v-2.97c0-.1,0-.2-.02-.3-.01-.1-.03-.19-.06-.29-.03-.09-.07-.18-.13-.26-.06-.08-.12-.16-.2-.22-.08-.06-.16-.1-.26-.13-.1-.03-.19-.04-.3-.04s-.2.01-.3.04c-.1.03-.18.07-.26.13-.08.06-.14.13-.2.22-.06.08-.1.17-.13.26-.03.09-.05.19-.06.29-.01.1-.02.2-.02.3v2.97h-.7Z" />
        <path class="cls-1"
            d="m230.12,92.36c-.15,0-.3-.02-.44-.06-.15-.04-.28-.11-.4-.2s-.22-.2-.3-.32c-.08-.13-.15-.26-.19-.4-.05-.14-.08-.29-.1-.44-.02-.15-.03-.3-.03-.45v-1.17c0-.15,0-.3.03-.45.02-.15.05-.3.1-.44.05-.14.11-.27.19-.4.08-.13.18-.23.3-.32.12-.09.25-.16.4-.2.15-.04.29-.06.44-.06.14,0,.27.02.41.05s.26.09.37.18.21.18.28.3c.08.12.14.24.19.36v-2.66h.7v6.61h-.7v-.82c-.05.13-.11.25-.19.36-.08.12-.17.22-.28.3s-.23.14-.37.18c-.14.04-.27.05-.41.05Zm.27-.63c.1,0,.2-.01.3-.04.1-.03.19-.07.27-.13.08-.06.14-.13.2-.22.06-.08.1-.17.13-.27.03-.09.05-.19.06-.29s.02-.2.02-.3v-1.17c0-.1,0-.2-.02-.3-.01-.1-.03-.19-.06-.29-.03-.09-.07-.18-.13-.27-.06-.09-.12-.16-.2-.22s-.17-.1-.27-.13-.2-.04-.3-.04-.2.01-.3.04-.19.06-.27.12c-.08.06-.16.13-.22.21-.06.08-.11.17-.15.27-.04.1-.06.2-.07.3-.01.1-.02.2-.02.31v1.17c0,.1,0,.2.02.31.01.1.04.2.07.3.04.1.08.19.15.27.06.08.14.15.22.21.08.06.17.1.27.12.1.02.2.04.3.04Z" />
        <path class="cls-1"
            d="m235.28,92.36c-.12,0-.24-.01-.36-.03s-.23-.06-.34-.12c-.11-.06-.2-.13-.28-.22s-.15-.19-.2-.3c-.05-.11-.09-.22-.11-.34-.02-.12-.03-.24-.03-.36,0-.16.02-.31.06-.46.04-.15.1-.29.2-.41s.2-.23.33-.31c.13-.08.27-.15.41-.2.15-.05.3-.08.45-.1.15-.02.31-.03.46-.03h.8v-.49c0-.13-.02-.25-.06-.38-.04-.13-.11-.23-.21-.32-.1-.08-.21-.14-.33-.18-.13-.04-.25-.05-.38-.05s-.24.01-.36.04c-.12.02-.22.07-.32.14-.1.07-.17.15-.22.26-.05.11-.08.22-.08.33h-.7c0-.14.02-.27.06-.41.04-.13.1-.25.18-.37.08-.11.17-.21.28-.29s.23-.15.36-.2c.13-.05.26-.09.4-.1.14-.02.28-.03.41-.03s.29.01.43.03.28.06.41.12c.13.06.25.14.36.23.11.1.2.21.27.33.07.13.12.26.15.41.03.14.05.29.05.43v3.28h-.7v-.77c-.05.13-.13.25-.23.36s-.21.2-.34.28c-.13.08-.26.13-.41.16s-.29.05-.43.05Zm.27-.63c.14,0,.29-.02.44-.06s.27-.11.38-.21c.11-.1.19-.22.24-.36s.08-.29.08-.44v-.55h-.8c-.1,0-.19,0-.28.01s-.18.02-.27.05-.17.05-.26.09c-.08.04-.16.09-.23.16-.07.07-.11.14-.14.23-.03.09-.05.18-.05.27,0,.11.02.23.06.33.04.11.1.2.18.28.08.08.18.13.3.16.11.03.23.04.34.04Z" />
        <path class="cls-1"
            d="m239.32,92.29v-4.77h.7v.38c.03-.07.07-.13.11-.18.04-.06.09-.11.15-.15.06-.04.12-.07.19-.09.07-.02.14-.03.21-.03.09,0,.18.02.26.05.08.03.16.07.22.14.06.06.12.13.16.21s.07.16.1.25c.02-.08.06-.17.1-.25.04-.08.09-.15.15-.21s.13-.11.22-.14c.08-.03.17-.05.26-.05s.18.02.26.05.16.08.23.14.12.14.16.22c.04.08.07.17.09.26.02.09.04.18.05.27,0,.09.01.18.01.27v3.63h-.7v-3.63c0-.07,0-.13-.01-.19,0-.06-.03-.13-.06-.18-.03-.06-.07-.11-.13-.14-.06-.04-.12-.05-.18-.05-.06,0-.12.02-.18.05-.06.04-.1.08-.13.14-.03.06-.05.12-.06.18,0,.06-.01.13-.01.19v3.63h-.7v-3.63c0-.07,0-.13-.01-.19,0-.06-.03-.13-.06-.18-.03-.06-.07-.11-.13-.14-.06-.04-.12-.05-.18-.05-.07,0-.13.02-.18.05-.06.04-.1.08-.13.14-.03.06-.05.12-.06.18,0,.06-.01.13-.01.19v3.63h-.7Z" />
    </g>
</svg>