<?xml version="1.0" encoding="UTF-8"?><svg id="_鍥惧眰_1" xmlns="http://www.w3.org/2000/svg" viewBox="0 0 428.63 125.4"><defs><style>.cls-1{fill:#282c34;}</style></defs><path class="cls-1" d="m151.94,12.61c22.11,0,44.25-.56,66.34.15,23.15.75,46.3,2.58,68.57,9.79,4.28,1.38,8.48,3.39,12.26,5.8,5.39,3.44,6.84,7.92,6.54,15.08-.5,11.8,1.7,23.83,3.79,35.59,1.29,7.26,2.27,14.86,8.4,20.71,2.93,2.8-.56,4.79-3.59,4.52-8.02-.72-16.17-1.1-23.97-2.9-13.27-3.06-26.31-7.11-39.45-10.75-1.33-.37-2.67-.74-4.32-1.2-.85,5.7-2.29,10.83,4.81,13.59,1.58.61,1.99,4.22,2.94,6.45-2.06-.47-4.1-1.01-6.17-1.4-8.25-1.57-16.61-4.79-24.73-4.27-14.75.95-29.45,3.62-43.99,6.52-22.48,4.47-44.74,10.1-67.24,14.44-6.48,1.25-13.66.61-20.21-.7-7.73-1.54-9.61-8.37-4.04-14.02,4.14-4.21,9.01-8.19,14.3-10.69,20.72-9.79,41.74-18.95,62.65-28.34,2-.9,3.99-1.82,7.58-3.47-24.39.41-46.42,9.04-69.96,5.73-.87,3.44-1.77,8.22-3.31,12.78-3.76,11.13-9.46,14.27-20.94,11.83-10.83-2.31-19.79-8.16-28.07-15.17-15.46-13.09-28.01-28.67-38.95-45.62-.87-1.35-1.79-2.66-3.7-5.49-.21,3.77-.38,5.92-.44,8.07-.49,17.17-.97,34.34-1.45,51.5,0,.21.07.45-.02.62-.87,1.81-1.76,3.6-2.64,5.4-.89-1.73-2.55-3.46-2.55-5.19,0-10.34.35-20.69.64-31.03.21-7.24.87-14.48.67-21.71C1.46,31.04.34,22.88,0,14.69c-.08-1.81,1.48-3.7,2.28-5.55,1.36.98,3.74,1.8,3.91,2.96,2.76,18.01,14.84,30.72,25.66,43.76,8.37,10.09,18.29,19.15,28.61,27.29,5.74,4.53,13.48,7.06,20.72,9,7.27,1.96,9.95-.24,12.6-7.46,4.24-11.54,4.35-23.55,3.22-35.55-1.05-11.12-2.54-22.23-9.37-31.72-.62-.86-1.07-2.48-.67-3.24.42-.78,1.99-1.32,3.06-1.33,13.71-.09,27.41-.06,42.52-.06-3.25-4.78-4.51-8.3.09-10.44,3.45-1.6,7.47-5.05,10.07,1.49.32.8,2.84,1.13,4.28,1.02,46.96-3.73,93.9-2.81,140.73,1.67,33.98,3.25,67.97,7.35,99.69,21.11,8.57,3.72,16.99,8.89,23.89,15.14,14.16,12.85,13.24,31.82-1.03,44.61-14.15,12.68-31.61,18.6-49.46,23.26-36.41,9.5-73.59,13.37-111.16,13.7-3.93.03-9.64.91-9.83-4.48-.08-2.09,5.57-5.21,9.1-6.38,4-1.33,8.54-1.18,12.86-1.37,3.71-.16,5.89,1.55,4.81,7.33,24.24-3.19,47.94-5.26,71.18-9.71,17.32-3.32,34.28-9.05,50.91-15.07,7.08-2.56,13.77-7.77,19.12-13.25,10.46-10.72,9.46-24.36-1.6-34.48-10.79-9.87-24.08-15.09-37.77-19.35-30.2-9.4-61.42-13.15-92.76-15.79-41.08-3.45-82.23-3.99-123.4-1.21-.11.67-.21,1.34-.32,2.01Zm-38.73,54.03c.23.62.46,1.25.69,1.87,5.32-.62,10.65-1.23,15.97-1.87,15.79-1.88,31.56-3.96,47.38-5.44,2.52-.24,5.3,2.19,7.96,3.39-1.81,2.05-3.3,4.61-5.52,6.02-3.46,2.19-7.36,3.73-11.17,5.32-10.3,4.29-20.81,8.1-30.92,12.78-13.66,6.33-27.14,13.09-40.41,20.19-2.59,1.38-3.89,5.17-5.79,7.84,3.03.9,6.21,2.88,9.07,2.51,14.11-1.85,28.2-3.97,42.17-6.66,32.2-6.21,63.24-20.16,97.16-13.68q1.26-11.32-7.84-16.67c-1.42-.84-2.76-1.82-4.05-2.85-3.7-2.94-3.53-5.84.37-8.41,1.54-1.01,3.22-2.04,4.98-2.44,5.54-1.25,6.74-4.54,6.33-9.93-.82-10.72-.97-21.49-1.13-32.25-.02-1.38,1.57-2.78,2.42-4.17,1.02,1.31,2.43,2.48,2.96,3.96.53,1.48.22,3.27.22,4.93,0,10.72,0,21.43,0,32.15.78.51,1.55,1.02,2.33,1.54,16.37-6.69,32.88-13.04,49.02-20.24,6.11-2.72,5.98-8.44.39-12.01-3.26-2.09-6.89-4.2-10.62-4.87-17.66-3.18-35.34-7.59-53.15-8.38-36.55-1.63-73.19-1.4-109.8-1.55-8.53-.04-18-2.04-23.37,5.26,1.73,15.49,3.33,29.86,4.87,43.67,4.33-2.87,8.82-6.69,13.97-9.11,23.37-10.96,46.89-21.62,70.46-32.14,4.29-1.91,9.04-2.89,13.67-3.85,1.03-.21,2.44,1.45,3.68,2.25-.81,1.21-1.35,3.09-2.48,3.54-18.32,7.46-36.86,14.39-55.03,22.19-11.86,5.09-23.21,11.36-34.78,17.11Zm132.58,3.58c-.95,12.28-.99,12.41,10.24,16.11,8.41,2.77,16.87,5.5,25.46,7.62,8.38,2.07,16.95,3.36,25.15,4.94-3.01-17.08-5.79-32.84-8.47-48.01-17.29,6.38-34.83,12.86-52.38,19.34Zm-5.85,1.44c-3.24,1.48-5.42,2.49-8.79,4.03,3.62,1.84,5.99,3.05,8.79,4.47v-8.51Z"/><path class="cls-1" d="m425.46,105.97c-1.31-.28-3.03.24-3.55,1.36-.36.77.08,1.35,1.49,4.58,1.42,3.25,1.5,3.89,2.06,3.96,1.35.17,3.18-2.45,3.17-4.95,0-1.9-1.04-4.49-3.17-4.95Z"/></svg>