<?xml version="1.0" encoding="UTF-8"?><svg id="_鍥惧眰_1" xmlns="http://www.w3.org/2000/svg" viewBox="0 0 169.56 47.26"><defs><style>.cls-1{fill:#21252b;}</style></defs><path class="cls-1" d="m4.76,17.61l-.14-1.05c-.05-.34-.07-.53-.07-.57,0-.1.08-.19.23-.26l2.62-1.22s.09-.03.14-.03c.14,0,.24.09.28.28l4.18,20.94c.07.38.16.65.27.82s.32.34.63.52c.24.14.36.31.36.49v.68c0,.25-.1.37-.29.37h-5.16c-.28,0-.42-.12-.42-.37v-.68c0-.24.16-.44.5-.6.4-.22.6-.51.6-.88,0-.1-.01-.22-.03-.36l-.64-3.23H3.77l-.65,3.11c-.03.13-.05.23-.05.29,0,.31.23.65.69,1.02.3.25.45.46.45.65v.68c0,.25-.15.37-.45.37H.54c-.36,0-.54-.12-.54-.37v-.8c0-.22.11-.39.34-.52.42-.26.7-.69.83-1.31l3.59-17.96Zm1.07,4.96l-1.61,7.92h3.2l-1.58-7.92Z"/><path class="cls-1" d="m20.22,41.01v-14.46c0-.56-.22-.95-.66-1.17-.19-.09-.28-.23-.28-.41v-.58c0-.19.11-.28.34-.28l3.57-.12v1.47c.82-1.05,1.69-1.57,2.61-1.57,1.11,0,1.96.65,2.56,1.94.59,1.29.89,2.99.89,5.1,0,1.52-.14,2.94-.41,4.24s-.64,2.25-1.1,2.85-1.07.9-1.83.9c-.98,0-1.85-.41-2.62-1.22v3.49c0,.47.14.82.43,1.05.15.11.23.23.23.36v.84c0,.15-.06.22-.17.22h-4.12c-.16,0-.25-.07-.25-.22v-.84c0-.11.08-.22.23-.33.39-.24.59-.65.59-1.25Zm3.06-14.53v9.68c.46.5.88.76,1.25.76.51,0,.88-.39,1.1-1.18s.32-2.36.32-4.72c0-2.12-.12-3.51-.36-4.18s-.6-1-1.09-1c-.38,0-.79.21-1.22.63Z"/><path class="cls-1" d="m35.21,23.7c3.25,0,4.88,2.56,4.88,7.67,0,2.41-.4,4.27-1.2,5.57s-1.96,1.96-3.47,1.96-2.71-.64-3.54-1.92-1.24-3.18-1.24-5.7.43-4.56,1.3-5.77,1.96-1.81,3.29-1.81Zm1.5,6.13c0-1.76-.11-2.97-.32-3.62s-.57-.98-1.05-.98c-.9,0-1.34,1.25-1.34,3.74v3.49c0,1.85.1,3.14.3,3.85s.57,1.07,1.1,1.07c.45,0,.78-.28,1-.83s.32-1.57.32-3.05v-3.67Z"/><path class="cls-1" d="m41.9,25.69h-.54c-.24,0-.36-.1-.36-.31v-.77c0-.22.11-.41.34-.59.3-.22.49-.46.57-.73s.12-.72.12-1.34v-2.53c0-.25.16-.39.49-.43l1.88-.2c.16-.02.27-.03.32-.03.14,0,.22.12.22.37v4.89h1.57c.3,0,.45.12.45.36v.94c0,.25-.12.37-.36.37h-1.67v9.39c0,1.02.31,1.53.94,1.53.14,0,.3-.02.46-.06.11-.03.2-.05.26-.05.19,0,.3.07.36.22l.23.74c.03.06.05.11.05.14,0,.23-.34.5-1.02.83s-1.32.49-1.91.49c-1.62,0-2.42-1-2.42-3.01v-10.2Z"/><path class="cls-1" d="m58.03,23.7c3.25,0,4.88,2.56,4.88,7.67,0,2.41-.4,4.27-1.2,5.57-.8,1.31-1.96,1.96-3.47,1.96s-2.71-.64-3.54-1.92-1.24-3.18-1.24-5.7.43-4.56,1.3-5.77c.86-1.21,1.96-1.81,3.29-1.81Zm1.5,6.13c0-1.76-.11-2.97-.32-3.62s-.57-.98-1.05-.98c-.9,0-1.34,1.25-1.34,3.74v3.49c0,1.85.1,3.14.3,3.85s.57,1.07,1.1,1.07c.45,0,.78-.28,1-.83s.32-1.57.32-3.05v-3.67Z"/><path class="cls-1" d="m67.97,25.66v10.47c0,.55.22.93.65,1.14.2.09.29.24.29.45v.57c0,.2-.11.29-.34.29h-4.26c-.23,0-.34-.1-.34-.29v-.57c0-.2.09-.34.28-.45.44-.23.66-.61.66-1.14v-10.47h-.82c-.16,0-.25-.07-.25-.22v-.74c0-.16.11-.31.34-.43.29-.15.48-.36.57-.62s.16-.82.2-1.68c.11-2.45.62-4.35,1.53-5.7s1.96-2.02,3.16-2.02c.51,0,.95.16,1.32.49s.55.73.55,1.21c0,.39-.13.74-.39,1.05s-.62.46-1.1.46c-.55,0-.93-.28-1.14-.85-.09-.26-.2-.39-.31-.39-.41,0-.62.95-.62,2.84v4.96h1.16c.25,0,.37.11.37.32v1.03c0,.19-.11.28-.34.28h-1.19Z"/><path class="cls-1" d="m76.39,41.01v-14.46c0-.56-.22-.95-.66-1.17-.19-.09-.28-.23-.28-.41v-.58c0-.19.11-.28.34-.28l3.57-.12v1.47c.82-1.05,1.69-1.57,2.61-1.57,1.11,0,1.96.65,2.56,1.94s.89,2.99.89,5.1c0,1.52-.14,2.94-.41,4.24s-.64,2.25-1.1,2.85-1.07.9-1.83.9c-.98,0-1.85-.41-2.62-1.22v3.49c0,.47.14.82.43,1.05.15.11.23.23.23.36v.84c0,.15-.06.22-.17.22h-4.12c-.16,0-.25-.07-.25-.22v-.84c0-.11.08-.22.23-.33.39-.24.59-.65.59-1.25Zm3.06-14.53v9.68c.46.5.88.76,1.25.76.51,0,.88-.39,1.1-1.18s.32-2.36.32-4.72c0-2.12-.12-3.51-.36-4.18s-.6-1-1.09-1c-.38,0-.79.21-1.22.63Z"/><path class="cls-1" d="m90.42,24.02v12.1c0,.54.22.92.66,1.14.19.1.28.25.28.45v.57c0,.2-.11.29-.34.29h-4.26c-.23,0-.34-.1-.34-.29v-.57c0-.21.1-.36.29-.45.43-.22.65-.6.65-1.14v-9.55c0-.55-.22-.94-.66-1.17-.19-.1-.28-.24-.28-.41v-.58c0-.19.11-.29.34-.3l3.66-.11Z"/><path class="cls-1" d="m98.56,24.32c.71-.72,1.35-1.08,1.91-1.08.36,0,.67.11.94.32s.4.49.4.83c0,.61-.3.91-.91.91-.2,0-.42-.07-.66-.2-.2-.1-.33-.15-.42-.15-.16,0-.33.05-.49.14.76,1.06,1.14,2.23,1.14,3.5,0,1.61-.35,2.88-1.05,3.83s-1.68,1.42-2.94,1.42c-.33,0-.74-.04-1.22-.12l-.78,1.96h1.42c3.53,0,5.3,1.22,5.3,3.66,0,1.26-.47,2.24-1.41,2.96s-2.17,1.07-3.7,1.07c-1.21,0-2.17-.21-2.86-.63s-1.04-.99-1.04-1.71c0-.41.13-.75.4-1.03s.62-.41,1.05-.41c.4,0,.74.12,1.01.36s.41.54.41.9c0,.22-.07.46-.22.74.49.24,1,.36,1.53.36.67,0,1.24-.17,1.72-.52s.72-.78.72-1.3c0-1.11-1.22-1.67-3.67-1.67-.49,0-1.09.02-1.79.05-.36.02-.63.03-.8.03-.33,0-.49-.1-.49-.29,0-.14.08-.42.23-.82l1.71-4.28c-1.15-1-1.73-2.44-1.73-4.32,0-1.47.34-2.69,1.01-3.65s1.71-1.44,3.1-1.44c.82,0,1.55.21,2.19.62Zm-2.21,8.14c.43,0,.73-.24.9-.73s.25-1.42.25-2.79c0-1.57-.08-2.61-.25-3.11s-.44-.75-.83-.75c-.51,0-.84.37-.97,1.11s-.2,1.86-.2,3.35c0,1.05.08,1.8.25,2.25s.45.67.86.67Z"/><path class="cls-1" d="m116.33,23.7c3.25,0,4.88,2.56,4.88,7.67,0,2.41-.4,4.27-1.2,5.57-.8,1.31-1.96,1.96-3.47,1.96s-2.71-.64-3.54-1.92c-.83-1.28-1.24-3.18-1.24-5.7s.43-4.56,1.3-5.77c.86-1.21,1.96-1.81,3.29-1.81Zm1.5,6.13c0-1.76-.11-2.97-.32-3.62s-.57-.98-1.05-.98c-.9,0-1.34,1.25-1.34,3.74v3.49c0,1.85.1,3.14.3,3.85s.57,1.07,1.1,1.07c.45,0,.78-.28,1-.83s.32-1.57.32-3.05v-3.67Z"/><path class="cls-1" d="m123.17,36.17v-9.59c0-.56-.22-.95-.66-1.17-.19-.09-.28-.23-.28-.41v-.58c0-.19.11-.29.34-.3l3.66-.11v1.27c.87-.94,1.83-1.4,2.87-1.4.77,0,1.38.3,1.81.9s.66,1.37.66,2.33v9.25c0,.32.14.65.42.99.13.16.2.28.2.34v.65c0,.16-.08.25-.23.25h-3.77c-.17,0-.26-.08-.26-.25v-.8c0-.08.06-.16.17-.25.28-.22.42-.47.42-.77v-9.4c0-.75-.27-1.13-.8-1.13s-1.01.31-1.48.93v9.45c0,.35.12.65.36.91.11.12.17.21.17.26v.85c0,.13-.07.2-.22.2h-3.83c-.16,0-.25-.08-.25-.23v-.82c0-.07.07-.16.2-.26.34-.27.51-.63.51-1.09Z"/><path class="cls-1" d="m137.59,23.7c1.01,0,1.84.25,2.49.76s.98,1.14.98,1.91c0,.44-.15.82-.46,1.14s-.7.48-1.18.48c-.39,0-.74-.12-1.04-.35s-.46-.56-.46-1c0-.17.05-.37.14-.59.06-.14.1-.25.1-.32,0-.36-.28-.54-.82-.54-.39,0-.74.14-1.04.42s-.46.68-.46,1.18c0,.43.14.84.42,1.23s1.01,1.01,2.19,1.86c1.14.82,1.94,1.58,2.39,2.28s.68,1.48.68,2.35c0,1.39-.45,2.47-1.34,3.23s-1.96,1.15-3.2,1.15-2.12-.28-2.85-.84-1.09-1.27-1.09-2.14c0-.47.14-.88.43-1.23s.71-.52,1.25-.52c.99,0,1.48.47,1.48,1.4,0,.15-.03.36-.1.6-.06.23-.1.39-.1.48,0,.5.36.76,1.08.76.55,0,1-.17,1.36-.52.36-.34.54-.74.54-1.18,0-.48-.16-.93-.47-1.34s-.93-.96-1.84-1.66c-1.24-.95-2.1-1.76-2.61-2.45s-.76-1.51-.76-2.46c0-1.22.43-2.22,1.3-2.98s1.85-1.14,2.96-1.14Z"/><path class="cls-1" d="m162.43,25.85c3.37-3.86,5.59-8.66,7.06-13.53.37-1.23-.89-2.57-2.15-2.15-2.47.82-4.87,1.81-7.19,2.95,2.93-3.39,5.86-6.77,8.79-10.16,1.16-1.34.05-3.28-1.7-2.92-6.17,1.25-12.14,3.44-17.64,6.5-2.72,1.51-5.28,3.25-7.74,5.14-2.59,2-5.14,4.15-8.13,5.54-5.38,2.5-11.6,2.06-17.16.4-2.98-.89-5.83-2.15-8.55-3.65-2.71-1.5-5.25-3.41-8.23-4.37-3.04-.99-6.44-.77-8.98,1.28-.97.78-2.94,1.68-3.65,3.82-.82,2.44.21,5.25,1.02,5.35.06,0,.49-.22,1.37-.64.16-.07.39-.18.62-.41.36-.36.54-.79.54-1.3s-.16-.9-.48-1.24c.67-.73,1.35-1.46,2.04-2.17,2.27-2.31,5.26-2.04,8.02-.74,2.66,1.26,5.06,3.03,7.69,4.36,2.68,1.35,5.48,2.49,8.37,3.3,5.49,1.53,11.54,1.9,16.98-.06,5.87-2.11,10.23-6.79,15.44-10.05,4.38-2.74,9.09-4.85,14.01-6.33-4.24,4.9-8.47,9.79-12.71,14.69-1.51,1.74.72,3.84,2.47,2.47,3.79-2.95,7.98-5.35,12.43-7.17-1.21,3.12-2.82,6.11-5,8.61-3.09,3.53-7.09,5.96-11.62,7.16-2.03.53-1.4,3.24.46,3.43,2.99.31,5.94.1,8.8-.58-4.11,4.11-8.06,6.4-10.69,7.66-1.74.83-3.16,1.35-3.74,1.55-.97.34-5.33,1.82-11.67,2.04-2.65.09-4.52-.09-8.28-.46-12.67-1.24-14.79-3.39-15.56-4.31-1.17-1.42-1.84-3.25-1.99-3.66-.7-1.9-1.43-3.92-.47-4.99.85-.96,2.84-.92,4.82,0,.26,0,.39-.12.39-.37v-1.3c0-1.76-.38-3.17-1.13-4.25-.75-1.07-1.74-1.61-2.96-1.61-1.38,0-2.48.69-3.3,2.07-1.3,2.19-1.25,5.12-1.23,5.68.03.83.23,5.9,2.58,9.41,3.42,5.11,10.55,5.64,19.44,6.17,6.86.41,17.79.93,28.45-4.65,0,0,7.01-3.74,11.11-11.37.88-1.64-.84-3.09-2.39-2.39-.87.39-1.76.72-2.66.99,1.49-1.1,2.87-2.35,4.1-3.76Zm-57.21,2.15c0-1.89.37-2.84,1.1-2.84s1.14.74,1.14,2.22v2.13h-2.24v-1.51Z"/></svg>