<?xml version="1.0" encoding="UTF-8"?>
<svg id="_鍥惧眰_1" data-name="鍥惧眰 1" xmlns="http://www.w3.org/2000/svg" viewBox="0 0 686.44 137.25">
    <defs>
        <style>
            .cls-1 {
            fill: #ececec;
            }
        </style>
    </defs>
    <path class="cls-1"
        d="m54.31,75.42c-16.37,0-29.52-3.42-39.43-10.25C4.96,58.34,0,49.18,0,37.68S4.92,17.08,14.77,10.25C24.61,3.42,37.79,0,54.31,0s29.62,3.41,39.54,10.22c9.92,6.81,14.88,15.97,14.88,27.46s-4.96,20.66-14.88,27.49c-9.92,6.83-23.1,10.25-39.54,10.25Zm0-12.26c3.6,0,6.28-.64,8.05-1.91,1.76-1.27,3.01-3.68,3.75-7.23.74-3.55,1.1-8.98,1.1-16.32s-.37-12.77-1.1-16.31c-.74-3.55-1.98-5.96-3.75-7.23-1.76-1.27-4.45-1.91-8.05-1.91s-6.19.64-7.99,1.91c-1.8,1.27-3.05,3.68-3.75,7.23-.7,3.55-1.05,8.98-1.05,16.31s.35,12.77,1.05,16.32c.7,3.55,1.95,5.96,3.75,7.23,1.8,1.27,4.46,1.91,7.99,1.91Z" />
    <path class="cls-1"
        d="m109.97,74.25v-14.83h9.74V15.95h-9.74V1.12h59.12c14.61,0,26.2,2.03,34.77,6.08,8.56,4.05,12.84,9.18,12.84,15.38,0,3.36-1.2,6.16-3.6,8.42-2.4,2.26-6.4,4.35-12,6.28l12.28,22.15h6.53v14.83h-34.92l-15.02-28.2h-12.4v13.37h9.74v14.83h-57.35Zm47.61-58.81v12.3c9.23,0,15.07.16,17.55-1.47,2.47-1.63,3.71-1.35,3.71-5.01,0-3.12-1.16-2.6-3.49-4.28-2.33-1.68-8.25-1.54-17.77-1.54Z" />
    <path class="cls-1"
        d="m222.86,74.25v-14.83h10.63l17.17-43.47h-10.2V1.12h87.91v14.83h-10.79l18.2,43.47h9.96v14.83h-54.36v-14.83h9.96l-3.83-9.74h-26.08l-3.68,9.74h9.79v14.83h-54.69Zm53.2-37.56h16.62l-6.27-21.65h-4.32l-6.03,21.65Z" />
    <path class="cls-1"
        d="m430.4,15.95h-10.27V1.12h41.74v14.83h-8.64v58.91h-29.45l-12.18-14.65c-5.39-6.37-10.21-12.39-14.45-18.05-4.25-5.66-8.29-11.63-12.12-17.9h-2.1c1.4,8.44,2.1,16.7,2.1,24.77l-.97,10.4h9.61v14.83h-42.41v-14.83h9.96V15.95h-9.96V1.12h45.73c12.03,12.78,22.7,27.36,32,43.73h1.99" />
    <path class="cls-1"
        d="m578.94,73.27v-14.82c0-.54.44-.98.98-.98h11.89c.54,0,.98-.44.98-.98V18.87c0-.54-.44-.98-.98-.98h-11.89c-.54,0-.98-.44-.98-.98V2.09c0-.54.44-.98.98-.98h105.56c.54,0,.98.44.98.98v21.29c0,.54-.44.98-.98.98h-25.42c-.54,0-.98-.44-.98-.98v-4.52c0-.54-.44-.98-.98-.98h-26.48c-.54,0-.98.44-.98.98v5.74c0,.54.44.98.98.98h19.2c.54,0,.98.44.98.98v20.66c0,.54-.44.98-.98.98h-19.2c-.54,0-.98.44-.98.98v7.32c0,.54.44.98.98.98h26.48c.54,0,.98-.44.98-.98v-5.13c0-.54.44-.98.98-.98h25.42c.54,0,.98.44.98.98v21.9c0,.54-.44.98-.98.98h-105.56c-.54,0-.98-.44-.98-.98Z" />
    <path class="cls-1"
        d="m562.32,85.22c0-4.87,3.95-8.82,8.82-8.82.92,0,1.81.14,2.65.41.28-3.59.39-7.55.48-12.5.17-9.31.25-20.3.1-32.71h-61.85v16.73h28.59c.25.67.5,1.33.75,2-1.85,1.49-3.5,3.67-5.59,4.36-9.34,3.07-18.69,2.86-27.72-1.44-6.21-2.95-10.77-7.42-10.37-15.25.39-7.8,4.87-13.07,11.57-14.95,6.34-1.78,13.19-2.44,19.76-2.16,3.8.16,7.49,3.18,11.24,4.87,1.14.51,2.33,1.25,3.51,1.26,8.82.1,17.64-.03,26.46.08,3.3.04,4.13-1.48,3.53-5.9-.56-4.06-.47-8.17.04-12.23.51-4.06-.24-5.69-3.46-5.9-16.13-1.02-32.24-2.79-48.37-3.07-16.7-.28-32.74,3.22-46.98,13.43-17.54,12.58-17.24,41.4,3.86,51.29,8.55,4.01,17.82,6.68,27.02,8.69,8.9,1.95,18.15,2,27.18,3.38,6.53,1,11.79,4.71,13.9,11.53,3.36,10.86,2.07,21.1-5.72,29.61-3.38,3.7-7.35,6.79-10.97,10.24-1.97,1.87-5.24,3.58-3.18,7.03,2.28,3.83,5.37,1.27,7.72-.17,4.64-2.83,9.25-5.83,13.48-9.29,7.21-5.9,13.06-12.8,17.29-20.83,2.17-4.12,3.53-7.82,4.48-10.94-4.57-.34-8.17-4.14-8.17-8.79Zm-8.96-15.32c-4.47.13-8.19-3.53-8.34-8.2-.16-4.85,3.61-8.96,8.19-8.93,4.52.03,7.99,3.71,8.02,8.49.03,4.85-3.3,8.51-7.86,8.64Z" />
</svg>